<?xml version="1.0" encoding="UTF-8" standalone="no"?>
<!DOCTYPE svg PUBLIC "-//W3C//DTD SVG 1.1//EN" "http://www.w3.org/Graphics/SVG/1.1/DTD/svg11.dtd">
<svg width="100%" height="100%" viewBox="0 0 2031 992" version="1.1" xmlns="http://www.w3.org/2000/svg" xmlns:xlink="http://www.w3.org/1999/xlink" xml:space="preserve" xmlns:serif="http://www.serif.com/" style="fill-rule:evenodd;clip-rule:evenodd;stroke-linecap:round;stroke-linejoin:round;stroke-miterlimit:1.5;">
    <rect id="animazione1" x="0.949" y="0.701" width="2030.04" height="991" style="fill:none;"/>
    <clipPath id="_clip1">
        <rect id="animazione11" serif:id="animazione1" x="0.949" y="0.701" width="2030.04" height="991"/>
    </clipPath>
    <g clip-path="url(#_clip1)">
        <rect id="background" x="0.949" y="0.701" width="2030.04" height="991" style="fill:rgb(255,204,11);"/>
        <clipPath id="_clip2">
            <rect x="0.949" y="0.701" width="2030.04" height="991"/>
        </clipPath>
        <g clip-path="url(#_clip2)">
            <path id="nuvolaTop" d="M533.804,949.284c142.688,-144.492 373.482,-236.719 630.766,-232.545c169.378,2.748 324.555,46.859 448.809,119.195c54.577,-66.05 152.993,-109.432 263.825,-107.634c166.413,2.7 298.204,106.242 294.119,231.077c-0.461,14.094 -2.634,27.861 -6.372,41.205c205.224,59.207 348.571,210.278 342.864,384.707c-7.269,222.174 -253.626,398.65 -549.798,393.845c-110.117,-1.786 -211.716,-28.382 -295.538,-72.514c-140.377,97.542 -329.347,155.967 -535.291,152.626c-244.827,-3.972 -459.983,-94.366 -594.921,-231.469c-44.701,11.302 -92.421,17.777 -142.088,18.583c-129.195,2.096 -247.743,-34.557 -335.806,-95.748c-52.585,27.685 -116.321,44.37 -185.401,45.491c-185.8,3.014 -340.347,-107.696 -344.908,-247.073c-3.58,-109.426 86.347,-204.197 215.091,-241.34c-2.345,-8.371 -3.708,-17.008 -3.998,-25.849c-2.562,-78.314 80.115,-143.269 184.512,-144.963c69.528,-1.128 131.268,26.087 165.506,67.522c77.949,-45.378 175.296,-73.051 281.553,-74.775c58.487,-0.948 114.792,6.044 167.076,19.659Z" style="fill:rgb(255,195,43);"/>
            <path id="nuvolaTop1" serif:id="nuvolaTop" d="M1416.66,29.322c-121.396,106.385 -317.75,174.289 -536.642,171.216c-144.103,-2.023 -276.124,-34.501 -381.837,-87.76c-46.433,48.631 -130.163,80.571 -224.456,79.248c-141.58,-1.988 -253.705,-78.223 -250.23,-170.135c0.392,-10.377 2.242,-20.513 5.421,-30.338c-174.599,-43.592 -296.556,-154.821 -291.701,-283.247c6.185,-163.58 215.779,-293.514 467.756,-289.977c93.685,1.316 180.123,20.898 251.437,53.391c119.43,-71.818 280.201,-114.834 455.413,-112.374c208.295,2.924 391.344,69.478 506.146,170.423c38.031,-8.321 78.63,-13.089 120.886,-13.682c109.916,-1.543 210.774,25.443 285.696,70.496c44.738,-20.384 98.963,-32.668 157.735,-33.493c158.074,-2.219 289.56,79.293 293.439,181.912c3.046,80.566 -73.461,150.344 -182.994,177.691c1.995,6.163 3.155,12.522 3.401,19.032c2.18,57.659 -68.159,105.484 -156.978,106.731c-59.153,0.831 -111.68,-19.207 -140.809,-49.715c-66.317,33.411 -149.138,53.786 -239.539,55.055c-49.759,0.699 -97.662,-4.45 -142.144,-14.474Z" style="fill:rgb(255,195,43);"/>
            <path d="M0.949,529.131c-0,0 302.261,-175.878 649.647,-100.351c347.386,75.527 782.024,232.565 1380.4,17.492" style="fill:none;stroke:rgb(255,229,128);stroke-width:1.85px;"/>
            <path d="M9.985,632.141c0,-0 314.925,-184.601 669.13,-145.586c354.205,39.016 853.318,109.829 1422.93,-154.731" style="fill:none;stroke:rgb(255,229,128);stroke-opacity:0.27;stroke-width:1.84px;"/>
            <path d="M-22.694,529.131c0,0 314.925,-184.601 669.13,-145.585c354.205,39.015 879.905,191.911 1449.52,-72.648" style="fill:none;stroke:rgb(255,229,128);stroke-opacity:0.5;stroke-width:1.84px;"/>
        </g>
        <g transform="matrix(1,0,0,0.967146,3.63798e-12,-750.706)">
            <g transform="matrix(210.193,0,0,210.193,975.367,1194.47)">
            </g>
            <text x="225.609px" y="1194.47px" style="font-family:'AmericanTypewriter', 'American Typewriter', serif;font-size:210.193px;fill:white;">online?</text>
        </g>
        <path d="M1261.01,193.762c26.57,-38.114 69.545,-62.441 117.454,-61.34c31.539,0.724 60.434,12.36 83.572,31.441c10.162,-17.423 28.488,-28.866 49.126,-28.392c30.987,0.712 55.528,28.024 54.767,60.953c-0.086,3.718 -0.49,7.349 -1.186,10.869c38.214,15.618 64.906,55.467 63.844,101.477c-1.354,58.605 -47.227,105.155 -102.377,103.888c-20.505,-0.472 -39.423,-7.487 -55.032,-19.128c-26.139,25.729 -61.327,41.141 -99.675,40.259c-45.589,-1.047 -85.653,-24.891 -110.779,-61.056c-8.324,2.981 -17.21,4.689 -26.458,4.902c-24.057,0.553 -46.132,-9.116 -62.53,-25.256c-9.792,7.302 -21.66,11.703 -34.523,11.999c-34.597,0.795 -63.375,-28.408 -64.225,-65.172c-0.666,-28.864 16.079,-53.863 40.052,-63.66c-0.437,-2.208 -0.691,-4.486 -0.744,-6.819c-0.478,-20.657 14.917,-37.791 34.357,-38.238c12.947,-0.297 24.443,6.882 30.819,17.811c14.514,-11.97 32.641,-19.269 52.427,-19.724c10.891,-0.25 21.375,1.594 31.111,5.186Z" style="fill:rgb(255,233,152);fill-opacity:0.47;"/>
        <g id="blocco1">
            <g id="nuvola2">
                <path d="M1145.42,784.979c6.669,-9.567 17.457,-15.674 29.483,-15.397c7.917,0.182 15.17,3.102 20.978,7.892c2.551,-4.374 7.151,-7.246 12.332,-7.127c7.778,0.179 13.938,7.035 13.747,15.3c-0.021,0.934 -0.123,1.845 -0.297,2.729c9.592,3.92 16.292,13.923 16.026,25.472c-0.34,14.711 -11.855,26.396 -25.699,26.078c-5.147,-0.118 -9.896,-1.879 -13.814,-4.801c-6.561,6.458 -15.394,10.327 -25.02,10.106c-11.444,-0.263 -21.501,-6.249 -27.808,-15.327c-2.089,0.749 -4.32,1.177 -6.641,1.231c-6.039,0.138 -11.58,-2.288 -15.696,-6.34c-2.458,1.833 -5.437,2.938 -8.666,3.012c-8.685,0.2 -15.909,-7.131 -16.122,-16.359c-0.167,-7.246 4.036,-13.521 10.054,-15.98c-0.11,-0.555 -0.174,-1.126 -0.187,-1.712c-0.12,-5.185 3.745,-9.486 8.624,-9.598c3.25,-0.075 6.136,1.727 7.736,4.471c3.644,-3.005 8.194,-4.837 13.161,-4.952c2.733,-0.062 5.365,0.401 7.809,1.302Z" style="fill:rgb(255,233,152);"/>
            </g>
            <g id="idea">
                <g>
                    <g>
                        <g>
                            <path d="M1104.16,468.462c-0,-1.832 -1.487,-3.319 -3.319,-3.319l-6.636,0c-1.831,0 -3.318,1.487 -3.318,3.319l0,97.129c0,1.831 1.487,3.318 3.318,3.318l6.636,-0c1.832,-0 3.319,-1.487 3.319,-3.318l-0,-97.129Z" style="fill:rgb(255,229,128);"/>
                            <path d="M1152.73,511.673c0.474,-1.769 -0.577,-3.59 -2.346,-4.064l-6.41,-1.717c-1.769,-0.474 -3.59,0.577 -4.064,2.346l-16.833,62.812c-0.474,1.769 0.577,3.59 2.346,4.064l6.411,1.717c1.768,0.474 3.589,-0.577 4.064,-2.346l16.832,-62.812Z" style="fill:rgb(255,229,128);"/>
                            <path d="M1056.54,508.983c-0.474,-1.769 -2.295,-2.82 -4.064,-2.346l-6.41,1.717c-1.769,0.474 -2.82,2.295 -2.346,4.064l16.633,62.067c0.474,1.769 2.295,2.82 4.064,2.346l6.41,-1.717c1.769,-0.474 2.821,-2.295 2.347,-4.064l-16.634,-62.067Z" style="fill:rgb(255,229,128);"/>
                            <path d="M1021.86,550.579c-1.013,-1.525 -3.074,-1.942 -4.6,-0.929l-5.529,3.671c-1.525,1.013 -1.941,3.074 -0.928,4.599l21.187,31.902c1.013,1.525 3.074,1.941 4.599,0.929l5.529,-3.671c1.525,-1.013 1.942,-3.074 0.928,-4.599l-21.186,-31.902Z" style="fill:rgb(255,229,128);"/>
                            <path d="M1174.58,550.579c1.013,-1.525 3.074,-1.942 4.6,-0.929l5.528,3.671c1.526,1.013 1.942,3.074 0.929,4.599l-21.187,31.902c-1.013,1.525 -3.074,1.941 -4.6,0.929l-5.528,-3.671c-1.526,-1.013 -1.942,-3.074 -0.929,-4.599l21.187,-31.902Z" style="fill:rgb(255,229,128);"/>
                        </g>
                    </g>
                    <path d="M1130.21,733.948c-3.502,-0.392 -55.939,0.873 -67.659,1.442c0,0 -69.066,-144.225 28.006,-148.7c111.873,-5.157 39.653,147.258 39.653,147.258Z" style="fill:rgb(255,229,128);"/>
                    <path d="M1080.09,780.946l0.807,23.571c10.199,3.638 20.473,3.828 30.819,0.638l0.731,-23.184c-10.06,-2.466 -22.151,-6.855 -32.357,-1.025Z" style="fill:rgb(38,38,38);"/>
                    <path d="M1067.42,764.885c-1.204,-0.402 -2.058,-1.554 -2.023,-2.888l0.153,-5.926c0.02,-0.758 0.323,-1.442 0.805,-1.954c-0.455,-0.536 -0.722,-1.235 -0.702,-1.992l0.154,-5.926c0.042,-1.635 1.404,-2.928 3.04,-2.886l56.061,1.455c1.636,0.042 2.929,1.404 2.887,3.039l-0.154,5.926c-0.015,0.583 -0.198,1.123 -0.502,1.574c0.699,0.559 1.138,1.428 1.113,2.391l-0.154,5.926c-0.035,1.334 -0.947,2.44 -2.171,2.779c1.204,0.402 2.059,1.555 2.024,2.889l-0.154,5.925c-0.036,1.381 -1.012,2.517 -2.299,2.812c0.482,0.543 0.768,1.263 0.748,2.046l-0.154,5.926c-0.042,1.621 -1.381,2.906 -2.998,2.887c0.33,0.355 0.527,0.835 0.513,1.358l-0.1,3.849c-0.027,1.063 -0.912,1.903 -1.975,1.875l-51.256,-1.33c-1.063,-0.028 -1.903,-0.912 -1.875,-1.975l0.1,-3.849c0.013,-0.523 0.234,-0.992 0.582,-1.33c-1.615,-0.064 -2.886,-1.417 -2.844,-3.038l0.154,-5.926c0.02,-0.783 0.343,-1.487 0.853,-2.004c-1.27,-0.362 -2.186,-1.547 -2.15,-2.928l0.154,-5.925c0.034,-1.334 0.947,-2.441 2.17,-2.78Z" style="fill:url(#_Linear3);"/>
                    <path d="M1062.55,735.39l3.522,11.5c22.462,5.778 51.44,4.877 61.751,0.483l2.603,-13.779c-21.151,-1.562 -46.416,-1.896 -67.876,1.796Z" style="fill:rgb(255,229,128);"/>
                </g>
                <ellipse cx="1127.9" cy="635.831" rx="5.381" ry="8.804" style="fill:rgb(255,242,199);"/>
                <path d="M1128.59,647.681c1.531,0.231 2.467,2.451 2.089,4.955c-0.377,2.505 -1.926,4.35 -3.457,4.12c-1.53,-0.231 -2.467,-2.451 -2.089,-4.955c0.377,-2.505 1.926,-4.35 3.457,-4.12Z" style="fill:rgb(255,242,199);"/>
            </g>
            <g id="nuvola1">
                <path d="M929.22,798.681c13.339,-19.134 34.914,-31.348 58.966,-30.795c15.834,0.364 30.34,6.205 41.956,15.785c5.102,-8.747 14.302,-14.492 24.663,-14.254c15.557,0.357 27.877,14.069 27.496,30.601c-0.043,1.866 -0.247,3.689 -0.596,5.456c19.185,7.841 32.586,27.846 32.052,50.945c-0.68,29.422 -23.71,52.792 -51.397,52.156c-10.294,-0.237 -19.792,-3.759 -27.628,-9.603c-13.123,12.917 -30.788,20.654 -50.041,20.212c-22.887,-0.526 -43,-12.497 -55.615,-30.653c-4.179,1.497 -8.64,2.354 -13.283,2.461c-12.077,0.278 -23.16,-4.576 -31.392,-12.679c-4.916,3.666 -10.874,5.875 -17.332,6.024c-17.369,0.399 -31.817,-14.262 -32.243,-32.719c-0.335,-14.491 8.072,-27.041 20.107,-31.96c-0.219,-1.108 -0.346,-2.252 -0.373,-3.423c-0.24,-10.371 7.489,-18.973 17.248,-19.197c6.5,-0.149 12.272,3.455 15.472,8.942c7.287,-6.009 16.388,-9.674 26.321,-9.902c5.468,-0.126 10.731,0.8 15.619,2.603Z" style="fill:rgb(255,233,152);"/>
            </g>
        </g>
        <g id="testo1">
            <g transform="matrix(1,0,0,0.967146,-3.63798e-12,-468.49)">
                <g transform="matrix(94.6382,0,0,94.6382,1011.43,715.963)">
                </g>
                <text x="225.609px" y="715.963px" style="font-family:'AmericanTypewriter', 'American Typewriter', serif;font-size:94.638px;fill:white;">Sogni di vendere</text>
            </g>
        </g>
        <g id="testo2">
            <path d="M574.734,684.709c-0,2.494 0.876,3.741 2.63,3.741c0.275,-0 0.688,-0.033 1.238,-0.1c0.55,-0.066 0.963,-0.1 1.238,-0.1c0.447,0 0.833,0.156 1.16,0.467c0.327,0.311 0.49,0.68 0.49,1.105c0,1.147 -0.774,1.72 -2.321,1.72c-0.069,0 -0.172,0 -0.309,0c-0.172,-0.033 -0.293,-0.05 -0.361,-0.05l-2.527,-0.349c-0.963,-0.133 -2.046,-0.199 -3.25,-0.199c-1.306,-0 -2.458,0.066 -3.455,0.199l-2.579,0.349c-0.103,0 -0.224,0.017 -0.361,0.05c-0.172,0 -0.292,0 -0.361,0c-1.513,0 -2.269,-0.573 -2.269,-1.72c-0,-1.048 0.55,-1.572 1.65,-1.572c0.275,0 0.688,0.034 1.238,0.1c0.55,0.067 0.963,0.1 1.238,0.1c1.719,-0 2.578,-1.247 2.578,-3.741l0,-20.248c0,-2.361 -1.255,-3.541 -3.765,-3.541l-1.598,-0c-2.476,-0 -3.714,1.163 -3.714,3.491c0,0.831 0.017,1.396 0.052,1.696l0.206,1.845c0.034,0.299 0.052,0.715 0.052,1.247c-0,2.094 -0.671,3.142 -2.012,3.142c-1.272,-0 -1.908,-0.765 -1.908,-2.294c-0,-0.433 0.051,-1.181 0.155,-2.245c0.068,-1.596 0.103,-2.61 0.103,-3.042c-0,-0.831 -0.029,-1.696 -0.087,-2.593c-0.114,-1.763 -0.171,-2.511 -0.171,-2.245c-0,-1.396 0.652,-2.094 1.956,-2.094c0.481,-0 1.596,0.05 3.347,0.149c0.172,0 1.579,0.067 4.222,0.2l5.869,-0c0.687,-0 2.523,-0.029 5.51,-0.088c0.652,0 1.768,-0.043 3.346,-0.13c1.408,-0.088 2.506,-0.131 3.295,-0.131c1.717,-0 2.575,0.681 2.575,2.044l-0,0.1c-0,0.333 -0.043,0.948 -0.129,1.846c-0.086,0.897 -0.181,1.861 -0.284,2.892l0,0.549c0,0.499 0.052,1.28 0.155,2.344c0.138,1.396 0.206,2.261 0.206,2.593c0,1.363 -0.67,2.045 -2.011,2.045c-1.307,0 -1.96,-0.835 -1.96,-2.505c-0,-0.601 0.052,-1.494 0.155,-2.679c0.103,-1.186 0.154,-2.079 0.154,-2.68c0,-2.305 -1.358,-3.457 -4.074,-3.457l-1.444,-0c-1.272,-0 -2.184,0.257 -2.734,0.773c-0.55,0.515 -0.859,1.371 -0.928,2.568l-0.206,3.491l-0,16.957Z" style="fill:white;fill-rule:nonzero;"/>
            <path d="M600.19,676.829l-0,6.484c-0,1.662 0.017,2.643 0.052,2.943c0.171,1.496 0.636,2.244 1.392,2.244c0.172,-0 0.602,-0.071 1.289,-0.214c0.172,-0.057 0.43,-0.085 0.774,-0.085c1.307,-0 1.96,0.54 1.96,1.62c-0,0.459 -0.216,0.852 -0.647,1.18c-0.431,0.327 -0.974,0.491 -1.63,0.491c-0.552,0 -1.389,-0.075 -2.51,-0.224c-1.121,-0.15 -1.958,-0.225 -2.51,-0.225c-0.897,0 -1.898,0.067 -3.002,0.2c-1.345,0.166 -2.242,0.249 -2.691,0.249c-1.38,0 -2.07,-0.557 -2.07,-1.671c-0,-1.08 0.59,-1.62 1.77,-1.62c0.277,-0 0.684,0.041 1.222,0.124c0.538,0.083 0.946,0.125 1.223,0.125c0.833,-0 1.336,-1.064 1.51,-3.192l-0,-12.768c-0.174,-2.094 -0.694,-3.142 -1.561,-3.142c-0.278,0 -0.668,0.059 -1.172,0.175c-0.503,0.116 -0.876,0.175 -1.118,0.175c-1.25,-0 -1.874,-0.532 -1.874,-1.596c-0,-1.131 0.756,-1.696 2.269,-1.696c0.654,-0 1.118,0.016 1.393,0.05c1.1,0.133 1.805,0.199 2.114,0.199c0.275,0 0.697,-0.041 1.264,-0.124c0.567,-0.084 0.988,-0.125 1.264,-0.125c0.997,-0 1.495,0.648 1.495,1.945c0,0.133 -0.013,0.332 -0.041,0.598c-0.027,0.266 -0.041,0.466 -0.041,0.599c-0.028,0.266 -0.056,1.297 -0.083,3.092c-0.027,1.363 -0.041,2.76 -0.041,4.189Zm-2.682,-13.066c-0.791,-0 -1.47,-0.275 -2.037,-0.823c-0.568,-0.549 -0.851,-1.206 -0.851,-1.97c-0,-0.765 0.283,-1.413 0.851,-1.945c0.567,-0.532 1.246,-0.798 2.037,-0.798c0.791,-0 1.47,0.266 2.037,0.798c0.568,0.532 0.851,1.18 0.851,1.945c0,0.764 -0.283,1.421 -0.851,1.97c-0.567,0.548 -1.246,0.823 -2.037,0.823Z" style="fill:white;fill-rule:nonzero;"/>
            <path d="M627.473,659.473c-0.305,2.76 -0.477,6.035 -0.515,9.826c1.103,-1.397 2.224,-2.378 3.361,-2.943c1.138,-0.565 2.569,-0.848 4.293,-0.848c3.447,0 6.188,1.164 8.222,3.491c2.035,2.328 3.052,5.42 3.052,9.277c-0,4.222 -1.075,7.589 -3.224,10.099c-2.149,2.51 -5.045,3.766 -8.69,3.766c-3.542,-0 -6.103,-1.28 -7.685,-3.841c0.138,0.965 0.206,1.497 0.206,1.596c0,1.197 -0.601,1.796 -1.805,1.796c-1.203,-0 -1.805,-0.831 -1.805,-2.494c0,-0.465 -0.008,-0.815 -0.025,-1.047c0,-0.765 -0.009,-1.58 -0.026,-2.444l0.309,-3.84l0,-18.354c-0.034,-1.23 -0.163,-2.061 -0.387,-2.493c-0.223,-0.433 -0.61,-0.649 -1.16,-0.649c-0.103,0 -0.55,0.067 -1.341,0.2c-0.378,0.066 -0.705,0.099 -0.98,0.099c-1.169,0 -1.754,-0.54 -1.754,-1.62c0,-1.114 0.688,-1.671 2.063,-1.671c0.413,-0 0.757,0.019 1.032,0.058l1.238,0.175c0.55,0.077 0.997,0.116 1.341,0.116c0.378,-0 0.911,-0.058 1.598,-0.175c0.688,-0.116 1.204,-0.174 1.548,-0.174c0.756,-0 1.134,0.465 1.134,1.396l0,0.698Zm-0.15,14.464c-0.244,1.064 -0.365,2.56 -0.365,4.488c-0,3.292 0.278,5.553 0.834,6.783c1.077,2.427 3.127,3.641 6.15,3.641c2.397,-0 4.299,-0.906 5.707,-2.718c1.407,-1.812 2.111,-4.248 2.111,-7.307c-0,-3.125 -0.669,-5.577 -2.007,-7.356c-1.338,-1.779 -3.17,-2.668 -5.498,-2.668c-1.633,-0 -3.11,0.49 -4.431,1.471c-1.32,0.981 -2.154,2.203 -2.501,3.666Z" style="fill:white;fill-rule:nonzero;"/>
            <path d="M671.983,691.941c-2.819,0 -4.556,-1.18 -5.209,-3.541c-1.754,2.494 -4.504,3.741 -8.252,3.741c-2.785,-0 -5.012,-0.665 -6.679,-1.995c-1.668,-1.33 -2.502,-3.109 -2.502,-5.337c0,-2.759 1.221,-4.788 3.662,-6.084c0.929,-0.499 1.728,-0.823 2.398,-0.973c0.671,-0.15 2.021,-0.341 4.049,-0.573c2.888,-0.3 4.771,-0.715 5.648,-1.247c0.876,-0.532 1.315,-1.513 1.315,-2.943c-0,-1.363 -0.49,-2.435 -1.47,-3.217c-0.98,-0.781 -2.347,-1.172 -4.1,-1.172c-1.548,0 -2.992,0.416 -4.333,1.247c-0.515,0.333 -0.773,0.682 -0.773,1.047c-0,0.133 0.154,0.3 0.464,0.499c0.481,0.333 0.722,0.898 0.722,1.696c-0,0.665 -0.249,1.214 -0.748,1.646c-0.498,0.432 -1.126,0.648 -1.882,0.648c-0.894,0 -1.642,-0.299 -2.244,-0.898c-0.602,-0.598 -0.903,-1.33 -0.903,-2.194c0,-1.862 0.955,-3.458 2.863,-4.788c1.908,-1.33 4.221,-1.995 6.937,-1.995c6.258,0 9.387,2.903 9.387,8.709l-0,10.054c-0,1.592 0.034,2.538 0.103,2.836c0.206,1.161 0.791,1.742 1.753,1.742c1.204,-0 1.805,-1.057 1.805,-3.17l0,-2.427c0,-1.056 0.525,-1.585 1.574,-1.585c1.117,0 1.676,0.798 1.676,2.394l-0,3.092c-0.069,3.192 -1.823,4.788 -5.261,4.788Zm-5.776,-9.925l-0,-3.541c-0.754,0.665 -1.55,1.131 -2.389,1.397c-0.839,0.266 -2.337,0.498 -4.494,0.698c-3.905,0.366 -5.857,1.762 -5.857,4.189c0,1.264 0.473,2.261 1.419,2.993c0.945,0.731 2.226,1.097 3.842,1.097c2.304,-0 4.118,-0.607 5.441,-1.82c1.324,-1.214 2.003,-2.885 2.038,-5.013Z" style="fill:white;fill-rule:nonzero;"/>
            <path d="M689.744,665.508c2.296,0 4.215,0.582 5.757,1.746l0,-0.2c0,-1.23 0.551,-1.845 1.651,-1.845c1.134,-0 1.702,0.532 1.702,1.596c-0,0.199 -0.029,0.698 -0.086,1.496c-0.115,0.665 -0.172,1.33 -0.172,1.995c-0,0.399 0.043,0.981 0.129,1.746c0.086,0.764 0.129,1.346 0.129,1.745c-0,1.264 -0.559,1.895 -1.676,1.895c-1.084,0 -1.643,-0.532 -1.677,-1.596l0,-1.645c-0.034,-0.998 -0.63,-1.854 -1.787,-2.569c-1.157,-0.715 -2.513,-1.072 -4.067,-1.072c-1.589,-0 -2.919,0.39 -3.989,1.172c-1.071,0.781 -1.606,1.754 -1.606,2.917c-0,2.128 1.517,3.392 4.553,3.791l3.001,0.399c5.863,0.765 8.795,3.109 8.795,7.032c0,2.394 -0.943,4.331 -2.828,5.81c-1.886,1.48 -4.354,2.22 -7.406,2.22c-2.845,-0 -5.313,-0.782 -7.405,-2.344l0,0.947c0,1.197 -0.584,1.796 -1.753,1.796c-1.273,-0 -1.909,-0.682 -1.909,-2.045c0,0.233 0.104,-0.632 0.31,-2.594c0.069,-0.465 0.103,-0.931 0.103,-1.396c-0,-0.798 -0.069,-1.546 -0.206,-2.244c-0.138,-0.699 -0.207,-1.247 -0.207,-1.646c0,-1.164 0.551,-1.746 1.651,-1.746c0.722,0 1.177,0.166 1.367,0.499c0.189,0.332 0.3,1.214 0.335,2.643c0.034,1.43 0.808,2.594 2.321,3.491c1.513,0.898 3.438,1.347 5.776,1.347c1.685,-0 3.077,-0.416 4.178,-1.247c1.1,-0.831 1.65,-1.878 1.65,-3.142c0,-2.261 -1.857,-3.574 -5.57,-3.94c-3.542,-0.366 -6.241,-1.039 -8.097,-2.02c-1.857,-0.981 -2.785,-2.701 -2.785,-5.162c-0,-2.327 0.908,-4.214 2.724,-5.66c1.817,-1.447 4.181,-2.17 7.094,-2.17Z" style="fill:white;fill-rule:nonzero;"/>
            <path d="M718.607,684.41l0,-3.192c0.035,-1.363 0.653,-2.045 1.857,-2.045c1.203,0 1.805,0.765 1.805,2.295c0,3.624 -0.478,6.151 -1.434,7.58c-1.298,1.929 -3.432,2.893 -6.403,2.893c-2.732,0 -4.678,-0.848 -5.839,-2.543c-0.854,-1.231 -1.281,-3.325 -1.281,-6.285l0,-11.969c0,-0.698 -0.334,-1.047 -1.002,-1.047l-1.688,-0c-0.562,-0 -1.028,-0.175 -1.398,-0.524c-0.369,-0.349 -0.554,-0.773 -0.554,-1.272c0,-0.465 0.181,-0.881 0.542,-1.247c0.361,-0.366 0.765,-0.548 1.212,-0.548l2.011,-0c0.585,-0 0.877,-0.316 0.877,-0.948l0,-5.137c0,-1.263 0.671,-1.895 2.012,-1.895c1.237,-0 1.856,0.632 1.856,1.895l0,5.337c0,0.498 0.31,0.748 0.929,0.748l5.621,-0c1.307,-0 1.96,0.581 1.96,1.745c0,1.23 -0.705,1.846 -2.114,1.846l-5.674,-0c-0.481,-0 -0.722,0.349 -0.722,1.047l0,12.269c0,3.491 1.203,5.236 3.609,5.236c2.441,0 3.713,-1.413 3.818,-4.239Z" style="fill:white;fill-rule:nonzero;"/>
            <path d="M747.077,691.941c-2.82,0 -4.556,-1.18 -5.209,-3.541c-1.754,2.494 -4.505,3.741 -8.252,3.741c-2.785,-0 -5.012,-0.665 -6.679,-1.995c-1.668,-1.33 -2.502,-3.109 -2.502,-5.337c0,-2.759 1.221,-4.788 3.662,-6.084c0.928,-0.499 1.728,-0.823 2.398,-0.973c0.671,-0.15 2.02,-0.341 4.049,-0.573c2.888,-0.3 4.771,-0.715 5.648,-1.247c0.876,-0.532 1.315,-1.513 1.315,-2.943c-0,-1.363 -0.49,-2.435 -1.47,-3.217c-0.98,-0.781 -2.347,-1.172 -4.1,-1.172c-1.548,0 -2.992,0.416 -4.333,1.247c-0.516,0.333 -0.773,0.682 -0.773,1.047c-0,0.133 0.154,0.3 0.464,0.499c0.481,0.333 0.722,0.898 0.722,1.696c-0,0.665 -0.249,1.214 -0.748,1.646c-0.499,0.432 -1.126,0.648 -1.883,0.648c-0.894,0 -1.641,-0.299 -2.243,-0.898c-0.602,-0.598 -0.903,-1.33 -0.903,-2.194c0,-1.862 0.954,-3.458 2.863,-4.788c1.908,-1.33 4.22,-1.995 6.937,-1.995c6.258,0 9.386,2.903 9.386,8.709l0,10.054c0,1.592 0.035,2.538 0.104,2.836c0.206,1.161 0.79,1.742 1.753,1.742c1.204,-0 1.805,-1.057 1.805,-3.17l0,-2.427c0,-1.056 0.525,-1.585 1.574,-1.585c1.117,0 1.676,0.798 1.676,2.394l-0,3.092c-0.069,3.192 -1.823,4.788 -5.261,4.788Zm-5.777,-9.925l0,-3.541c-0.753,0.665 -1.549,1.131 -2.388,1.397c-0.839,0.266 -2.337,0.498 -4.495,0.698c-3.904,0.366 -5.856,1.762 -5.856,4.189c0,1.264 0.473,2.261 1.419,2.993c0.945,0.731 2.226,1.097 3.842,1.097c2.304,-0 4.117,-0.607 5.441,-1.82c1.324,-1.214 2.003,-2.885 2.037,-5.013Z" style="fill:white;fill-rule:nonzero;"/>
            <path d="M787.976,690.046l0,-1.546c-1.822,2.427 -4.521,3.641 -8.097,3.641c-4.057,-0 -6.877,-1.214 -8.459,-3.641c-0.687,-1.064 -1.065,-2.311 -1.134,-3.741c-0.035,-0.698 -0.052,-2.161 -0.052,-4.389l0,-4.139c0,-4.555 -0.503,-6.833 -1.51,-6.833c-0.208,0 -0.538,0.025 -0.99,0.075c-0.451,0.05 -0.798,0.075 -1.041,0.075c-1.215,-0 -1.823,-0.54 -1.823,-1.621c0,-1.047 0.74,-1.571 2.218,-1.571c0.344,-0 0.851,0.042 1.522,0.125c0.67,0.083 1.177,0.124 1.521,0.124c0.31,0 0.842,-0.05 1.599,-0.149c0.516,-0.067 0.808,-0.1 0.877,-0.1c1.066,-0 1.599,0.632 1.599,1.895l-0,4.289l-0.155,3.691l-0,3.242c-0,2.892 0.24,4.97 0.722,6.234c0.791,2.095 2.682,3.142 5.673,3.142c1.479,-0 2.785,-0.324 3.92,-0.973c1.135,-0.648 1.925,-1.504 2.372,-2.568c0.55,-1.297 0.826,-3.757 0.826,-7.381l-0,-5.985c-0.172,-1.596 -0.619,-2.394 -1.341,-2.394l-1.548,-0c-1.203,-0 -1.805,-0.5 -1.805,-1.499c0,-1.129 0.671,-1.693 2.012,-1.693c0.309,-0 0.782,0.033 1.418,0.1c0.636,0.066 1.109,0.099 1.418,0.099c0.275,0 0.688,-0.033 1.238,-0.099c0.55,-0.067 0.963,-0.1 1.238,-0.1c1.031,-0 1.547,0.533 1.547,1.6c0,0.466 -0.034,0.833 -0.103,1.099c-0.172,1.266 -0.258,3.133 -0.258,5.599l0,7.697c0,2.033 0.017,3.166 0.052,3.4c0.172,1.766 0.653,2.649 1.444,2.649c0.241,0 0.584,-0.033 1.031,-0.1c0.447,-0.066 0.791,-0.099 1.032,-0.099c1.169,-0 1.753,0.54 1.753,1.62c0,1.114 -0.722,1.671 -2.166,1.671c-0.309,0 -0.756,-0.033 -1.341,-0.1c-0.859,-0.099 -1.392,-0.149 -1.599,-0.149c-0.103,-0 -0.464,0.033 -1.083,0.1c-0.412,0.099 -0.773,0.149 -1.083,0.149c-0.962,0 -1.444,-0.482 -1.444,-1.446Z" style="fill:white;fill-rule:nonzero;"/>
            <path d="M806.698,667.878l0,1.421c2.063,-2.527 4.814,-3.791 8.252,-3.791c1.857,0 3.61,0.457 5.261,1.372c1.65,0.914 2.768,2.053 3.352,3.416c0.482,1.13 0.722,2.61 0.722,4.439l0,9.476c0,1.429 0.017,2.277 0.052,2.543c0.172,1.131 0.636,1.696 1.392,1.696c0.31,-0 0.714,-0.042 1.212,-0.125c0.499,-0.083 0.851,-0.124 1.058,-0.124c0.447,-0 0.834,0.149 1.16,0.448c0.327,0.3 0.49,0.665 0.49,1.098c0,0.498 -0.206,0.914 -0.619,1.247c-0.412,0.332 -0.911,0.498 -1.495,0.498c-0.482,0 -1.273,-0.066 -2.373,-0.199c-1.1,-0.133 -2.132,-0.2 -3.094,-0.2c-0.894,0 -1.634,0.033 -2.218,0.1c-1.719,0.199 -2.631,0.299 -2.734,0.299c-1.375,0 -2.063,-0.582 -2.063,-1.745c0,-1.031 0.596,-1.546 1.788,-1.546c0.281,-0 0.596,0.033 0.947,0.099c0.666,0.133 1.086,0.2 1.262,0.2c0.841,-0 1.297,-0.915 1.367,-2.743l0,-9.376c0,-1.763 -0.086,-2.976 -0.257,-3.641c-0.308,-1.264 -0.976,-2.245 -2.003,-2.943c-1.131,-0.764 -2.415,-1.147 -3.853,-1.147c-2.741,0 -4.71,0.948 -5.909,2.843c-0.822,1.297 -1.233,3.508 -1.233,6.633l0,6.633c0,1.463 0.103,2.461 0.31,2.993c0.206,0.532 0.584,0.798 1.134,0.798c0.275,-0 0.654,-0.058 1.135,-0.175c0.481,-0.116 0.877,-0.174 1.186,-0.174c1.066,-0 1.599,0.557 1.599,1.67c0,1.081 -0.688,1.621 -2.063,1.621c-0.275,0 -1.169,-0.1 -2.682,-0.299c-0.756,-0.1 -1.599,-0.15 -2.527,-0.15c-0.722,0 -1.685,0.067 -2.888,0.2c-1.513,0.166 -2.373,0.249 -2.579,0.249c-1.444,0 -2.166,-0.565 -2.166,-1.695c-0,-1.064 0.56,-1.596 1.681,-1.596c0.175,-0 0.499,0.049 0.972,0.149c0.472,0.1 0.936,0.15 1.391,0.15c1.051,-0 1.594,-0.964 1.629,-2.893l0,-13.316c-0.07,-1.131 -0.219,-1.904 -0.446,-2.319c-0.228,-0.416 -0.622,-0.624 -1.183,-0.624c-0.245,0 -0.603,0.05 -1.076,0.15c-0.473,0.1 -0.832,0.15 -1.077,0.15c-1.261,-0 -1.891,-0.541 -1.891,-1.621c-0,-1.114 0.773,-1.671 2.321,-1.671c0.206,-0 0.378,0.017 0.515,0.05l1.909,0.199c0.55,0 1.031,-0.041 1.444,-0.124c0.894,-0.083 1.358,-0.125 1.392,-0.125c0.997,-0 1.496,0.507 1.496,1.522Z" style="fill:white;fill-rule:nonzero;"/>
            <path d="M836.56,658.027l-0.722,13.366l-2.785,0l-0.67,-13.366l4.177,0Z" style="fill:white;fill-rule:nonzero;"/>
            <path d="M849.66,676.829l0,6.484c0,1.662 0.018,2.643 0.052,2.943c0.172,1.496 0.636,2.244 1.393,2.244c0.171,-0 0.601,-0.071 1.289,-0.214c0.172,-0.057 0.43,-0.085 0.774,-0.085c1.306,-0 1.959,0.54 1.959,1.62c0,0.459 -0.215,0.852 -0.646,1.18c-0.431,0.327 -0.975,0.491 -1.631,0.491c-0.552,0 -1.388,-0.075 -2.509,-0.224c-1.122,-0.15 -1.958,-0.225 -2.511,-0.225c-0.897,0 -1.898,0.067 -3.002,0.2c-1.345,0.166 -2.242,0.249 -2.69,0.249c-1.381,0 -2.071,-0.557 -2.071,-1.671c0,-1.08 0.59,-1.62 1.77,-1.62c0.277,-0 0.685,0.041 1.223,0.124c0.537,0.083 0.945,0.125 1.223,0.125c0.833,-0 1.336,-1.064 1.509,-3.192l0,-12.768c-0.173,-2.094 -0.694,-3.142 -1.561,-3.142c-0.277,0 -0.668,0.059 -1.171,0.175c-0.503,0.116 -0.876,0.175 -1.119,0.175c-1.249,-0 -1.874,-0.532 -1.874,-1.596c0,-1.131 0.757,-1.696 2.27,-1.696c0.653,-0 1.117,0.016 1.392,0.05c1.101,0.133 1.805,0.199 2.115,0.199c0.275,0 0.696,-0.041 1.263,-0.124c0.568,-0.084 0.989,-0.125 1.264,-0.125c0.997,-0 1.496,0.648 1.496,1.945c-0,0.133 -0.014,0.332 -0.041,0.598c-0.028,0.266 -0.041,0.466 -0.041,0.599c-0.028,0.266 -0.056,1.297 -0.083,3.092c-0.028,1.363 -0.042,2.76 -0.042,4.189Zm-2.682,-13.066c-0.79,-0 -1.469,-0.275 -2.037,-0.823c-0.567,-0.549 -0.851,-1.206 -0.851,-1.97c0,-0.765 0.284,-1.413 0.851,-1.945c0.568,-0.532 1.247,-0.798 2.037,-0.798c0.791,-0 1.47,0.266 2.038,0.798c0.567,0.532 0.851,1.18 0.851,1.945c-0,0.764 -0.284,1.421 -0.851,1.97c-0.568,0.548 -1.247,0.823 -2.038,0.823Z" style="fill:white;fill-rule:nonzero;"/>
            <path d="M868.846,665.508c3.404,0 5.949,1.28 7.634,3.84l-0,-5.037c-0,-1.33 -0.035,-2.144 -0.104,-2.444c-0.171,-1.03 -0.653,-1.546 -1.444,-1.546c-0.275,0 -0.662,0.058 -1.16,0.175c-0.499,0.116 -0.885,0.174 -1.161,0.174c-1.272,0 -1.908,-0.54 -1.908,-1.62c0,-1.114 0.86,-1.671 2.579,-1.671c0.275,-0 0.774,0.033 1.496,0.1c1.1,0.099 1.667,0.149 1.702,0.149c0.309,0 0.756,-0.041 1.341,-0.125c0.584,-0.083 1.031,-0.124 1.341,-0.124c0.962,-0 1.444,0.666 1.444,1.998l-0,0.549c-0.035,0.1 -0.069,0.983 -0.103,2.648c-0,0.2 -0.052,1.482 -0.155,3.847c-0.069,1.665 -0.103,2.93 -0.103,3.796l-0,13.238c0.035,2.198 0.14,3.563 0.315,4.096c0.175,0.533 0.595,0.799 1.26,0.799c0.455,0 0.805,-0.025 1.051,-0.075c0.56,-0.049 0.946,-0.074 1.156,-0.074c1.295,-0 1.943,0.54 1.943,1.62c-0,1.114 -0.774,1.671 -2.321,1.671c-0.344,0 -0.869,-0.041 -1.573,-0.124c-0.705,-0.084 -1.23,-0.125 -1.573,-0.125c-0.104,-0 -0.499,0.033 -1.187,0.1c-0.412,0.099 -0.773,0.149 -1.083,0.149c-0.928,0 -1.392,-0.598 -1.392,-1.795l-0,-1.097c-1.818,2.36 -4.458,3.541 -7.922,3.541c-3.498,-0 -6.31,-1.231 -8.436,-3.691c-2.126,-2.46 -3.189,-5.686 -3.189,-9.676c-0,-4.023 1.048,-7.239 3.146,-9.65c2.097,-2.411 4.899,-3.616 8.406,-3.616Zm7.425,17.605c0.139,-1.097 0.209,-2.51 0.209,-4.239c-0,-2.227 -0.087,-3.74 -0.261,-4.538c-0.312,-1.663 -1.059,-2.959 -2.241,-3.89c-1.389,-1.098 -2.987,-1.646 -4.794,-1.646c-2.432,-0 -4.334,0.881 -5.706,2.643c-1.372,1.762 -2.058,4.173 -2.058,7.232c-0,3.158 0.712,5.644 2.136,7.456c1.424,1.812 3.37,2.718 5.837,2.718c1.876,-0 3.439,-0.524 4.69,-1.571c1.25,-1.047 1.979,-2.436 2.188,-4.165Z" style="fill:white;fill-rule:nonzero;"/>
            <path d="M911.654,676.59c0,1.259 -0.086,2.029 -0.259,2.311c-0.172,0.281 -0.672,0.422 -1.499,0.422l-16.445,0c-0.448,0 -0.742,0.059 -0.879,0.175c-0.138,0.117 -0.207,0.31 -0.207,0.577c-0,2.507 0.776,4.596 2.327,6.267c1.552,1.671 3.483,2.507 5.793,2.507c1.516,-0 2.904,-0.399 4.162,-1.197c1.259,-0.798 2.078,-1.812 2.457,-3.042l0.466,-1.447c0.241,-0.798 0.81,-1.197 1.706,-1.197c1.276,0 1.914,0.632 1.914,1.896c-0,2.161 -1.135,4.081 -3.404,5.76c-2.269,1.679 -4.848,2.519 -7.736,2.519c-3.611,-0 -6.482,-1.172 -8.613,-3.516c-2.132,-2.345 -3.198,-5.495 -3.198,-9.452c-0,-4.056 1.135,-7.348 3.404,-9.874c2.269,-2.527 5.226,-3.791 8.871,-3.791c3.232,0 5.897,1.044 7.994,3.131c2.097,2.087 3.146,4.737 3.146,7.951Zm-18.722,-1.257c0,0.466 0.38,0.698 1.139,0.698l12.37,0c0.725,0 1.087,-0.232 1.087,-0.698c0,-1.762 -0.69,-3.291 -2.07,-4.588c-1.38,-1.297 -3.002,-1.945 -4.865,-1.945c-1.933,-0 -3.693,0.673 -5.28,2.02c-1.587,1.346 -2.381,2.851 -2.381,4.513Z" style="fill:white;fill-rule:nonzero;"/>
            <path d="M937.648,691.941c-2.819,0 -4.556,-1.18 -5.209,-3.541c-1.754,2.494 -4.504,3.741 -8.252,3.741c-2.785,-0 -5.011,-0.665 -6.679,-1.995c-1.668,-1.33 -2.501,-3.109 -2.501,-5.337c-0,-2.759 1.22,-4.788 3.661,-6.084c0.929,-0.499 1.728,-0.823 2.399,-0.973c0.67,-0.15 2.02,-0.341 4.048,-0.573c2.889,-0.3 4.771,-0.715 5.648,-1.247c0.877,-0.532 1.315,-1.513 1.315,-2.943c-0,-1.363 -0.49,-2.435 -1.47,-3.217c-0.98,-0.781 -2.347,-1.172 -4.1,-1.172c-1.547,0 -2.992,0.416 -4.333,1.247c-0.515,0.333 -0.773,0.682 -0.773,1.047c-0,0.133 0.155,0.3 0.464,0.499c0.481,0.333 0.722,0.898 0.722,1.696c0,0.665 -0.249,1.214 -0.748,1.646c-0.498,0.432 -1.126,0.648 -1.882,0.648c-0.894,0 -1.642,-0.299 -2.244,-0.898c-0.601,-0.598 -0.902,-1.33 -0.902,-2.194c-0,-1.862 0.954,-3.458 2.862,-4.788c1.908,-1.33 4.221,-1.995 6.937,-1.995c6.258,0 9.387,2.903 9.387,8.709l-0,10.054c-0,1.592 0.034,2.538 0.103,2.836c0.206,1.161 0.791,1.742 1.753,1.742c1.204,-0 1.806,-1.057 1.806,-3.17l-0,-2.427c-0,-1.056 0.524,-1.585 1.573,-1.585c1.117,0 1.676,0.798 1.676,2.394l-0,3.092c-0.069,3.192 -1.823,4.788 -5.261,4.788Zm-5.776,-9.925l-0,-3.541c-0.754,0.665 -1.55,1.131 -2.389,1.397c-0.839,0.266 -2.337,0.498 -4.494,0.698c-3.904,0.366 -5.856,1.762 -5.856,4.189c-0,1.264 0.472,2.261 1.418,2.993c0.945,0.731 2.226,1.097 3.842,1.097c2.304,-0 4.118,-0.607 5.441,-1.82c1.324,-1.214 2.003,-2.885 2.038,-5.013Z" style="fill:white;fill-rule:nonzero;"/>
            <path d="M949.562,692.141c-0.894,-0 -1.65,-0.308 -2.269,-0.923c-0.619,-0.615 -0.929,-1.355 -0.929,-2.219c0,-0.865 0.31,-1.605 0.929,-2.22c0.619,-0.615 1.375,-0.922 2.269,-0.922c0.894,-0 1.65,0.307 2.269,0.922c0.619,0.615 0.929,1.355 0.929,2.22c-0,0.864 -0.31,1.604 -0.929,2.219c-0.619,0.615 -1.375,0.923 -2.269,0.923Z" style="fill:white;fill-rule:nonzero;"/>
            <path d="M963.642,692.141c-0.894,-0 -1.65,-0.308 -2.269,-0.923c-0.619,-0.615 -0.929,-1.355 -0.929,-2.219c0,-0.865 0.31,-1.605 0.929,-2.22c0.619,-0.615 1.375,-0.922 2.269,-0.922c0.894,-0 1.651,0.307 2.269,0.922c0.619,0.615 0.929,1.355 0.929,2.22c-0,0.864 -0.31,1.604 -0.929,2.219c-0.618,0.615 -1.375,0.923 -2.269,0.923Z" style="fill:white;fill-rule:nonzero;"/>
            <path d="M977.722,692.141c-0.894,-0 -1.65,-0.308 -2.269,-0.923c-0.619,-0.615 -0.928,-1.355 -0.928,-2.219c-0,-0.865 0.309,-1.605 0.928,-2.22c0.619,-0.615 1.375,-0.922 2.269,-0.922c0.894,-0 1.651,0.307 2.27,0.922c0.618,0.615 0.928,1.355 0.928,2.22c-0,0.864 -0.31,1.604 -0.928,2.219c-0.619,0.615 -1.376,0.923 -2.27,0.923Z" style="fill:white;fill-rule:nonzero;"/>
        </g>
        <g id="idea-scarpa">
            <path d="M1247.55,196.228c0,0 16.109,16 21.421,18.446c5.311,2.445 19.853,6.279 22.794,6.197c7.053,-0.462 11.443,0.041 12.552,1.692c1.11,1.652 2.643,9.726 2.643,9.726c0,-0 -7.039,9.76 -23.092,9.996c-16.054,0.236 -15.205,-0.592 -20.03,-0.367c-4.825,0.224 -20.235,1.522 -24.132,1.954c-3.897,0.432 -16.274,1.016 -16.274,1.016c-0,-0 -3.683,-0.431 -3.893,-2.247c-0.21,-1.817 -0.607,-7.894 0.043,-8.568c0.65,-0.673 0.827,-0.201 0.827,-0.201c-0,0 -2.618,-2.093 -1.706,-7.575c0.912,-5.482 2.527,-11.849 3.033,-13.483c0.506,-1.635 -1.805,-16.173 -1.805,-16.173l18.308,-1.031c-0,0 0.98,-3.682 2.048,-3.485c1.068,0.197 2.112,2.825 7.263,4.103Z" style="fill:rgb(86,129,151);"/>
            <path d="M1305.42,224.73c0.903,2.983 1.768,7.54 1.768,7.54c0,-0 -7.076,9.811 -23.213,10.048c-16.138,0.237 -15.285,-0.594 -20.135,-0.369c-4.851,0.225 -20.342,1.53 -24.259,1.964c-3.918,0.435 -16.36,1.022 -16.36,1.022c0,-0 -3.701,-0.433 -3.912,-2.259c-0.211,-1.826 -0.611,-7.935 0.043,-8.612c0.336,-0.349 0.6,-0.567 0.725,-0.527c0.099,0.101 28.803,0.799 42.831,-0.352c16.022,-1.314 37.581,-4.08 42.512,-8.455Z" style="fill:rgb(155,185,202);"/>
            <path d="M1250.34,200.415c0.468,-0.035 0.877,0.313 0.913,0.776c0.036,0.463 -0.316,0.868 -0.784,0.903c-0.469,0.035 -0.878,-0.312 -0.913,-0.775c-0.036,-0.464 0.315,-0.868 0.784,-0.904Z" style="fill:rgb(62,78,87);stroke:rgb(25,34,39);stroke-width:0.67px;"/>
            <path d="M1254.53,204.248c0.468,-0.035 0.877,0.312 0.913,0.775c0.036,0.463 -0.316,0.868 -0.784,0.903c-0.469,0.036 -0.878,-0.312 -0.913,-0.775c-0.036,-0.463 0.315,-0.868 0.784,-0.903Z" style="fill:rgb(62,78,87);stroke:rgb(25,34,39);stroke-width:0.67px;"/>
            <path d="M1252.39,202.153c0.468,-0.035 0.877,0.313 0.913,0.776c0.036,0.463 -0.316,0.868 -0.784,0.903c-0.469,0.035 -0.878,-0.312 -0.913,-0.775c-0.036,-0.464 0.315,-0.868 0.784,-0.904Z" style="fill:rgb(62,78,87);stroke:rgb(25,34,39);stroke-width:0.67px;"/>
            <path d="M1256.58,205.986c0.468,-0.035 0.877,0.312 0.913,0.775c0.036,0.463 -0.316,0.868 -0.784,0.903c-0.468,0.036 -0.878,-0.312 -0.913,-0.775c-0.036,-0.463 0.315,-0.868 0.784,-0.903Z" style="fill:rgb(62,78,87);stroke:rgb(25,34,39);stroke-width:0.67px;"/>
        </g>
        <g id="idea-vaso">
            <g>
                <g>
                    <path d="M1479.54,313.99c13.846,-0.546 25.16,0.823 25.25,3.054c0.09,2.232 -11.078,4.487 -24.924,5.032c-13.847,0.546 -25.161,-0.823 -25.251,-3.054c-0.09,-2.232 11.078,-4.486 24.925,-5.032Z" style="fill:rgb(151,86,144);"/>
                    <path d="M1504.8,317.362c-20.573,6.024 -49.903,2.235 -49.903,2.235c0,0 12.685,12.011 15.029,26.137c2.344,14.126 -26.053,25.019 -21.975,49.148c4.077,24.128 13.911,24.925 35.815,24.062c21.905,-0.863 -21.071,0.83 0.834,-0.033c21.904,-0.863 31.642,-2.432 33.765,-26.804c2.124,-24.373 -27.06,-32.998 -25.86,-47.263c1.199,-14.265 12.295,-27.482 12.295,-27.482Z" style="fill:rgb(197,160,193);"/>
                </g>
            </g>
            <path d="M1465.57,416.676c-4.187,-3.317 -6.878,-9.109 -8.552,-19.019c-3.897,-23.057 23.24,-33.468 21,-46.966c-2.24,-13.499 2.066,-22.69 19.671,-24.974c2.183,-3.448 2.962,-4.818 2.962,-4.818c-19.66,5.756 -32.184,13.001 -29.944,26.5c2.24,13.498 -24.897,23.909 -21,46.966c2.497,14.78 7.255,20.399 15.863,22.311Z" style="fill:rgb(217,194,215);"/>
        </g>
        <g id="idea-sveglia">
            <g>
                <path d="M1639.67,325.826c1.268,2.809 0.041,6.106 -2.736,7.36c-2.778,1.253 -6.063,-0.009 -7.33,-2.817c-1.268,-2.808 -0.042,-6.106 2.736,-7.359c2.778,-1.254 6.062,0.008 7.33,2.816Z" style="fill:rgb(240,110,82);"/>
                <g>
                    <path d="M1601.99,303.914c0,-0 4.688,-5.319 6.64,-5.277c1.952,0.042 5.851,-0.36 11.661,4.184c5.81,4.544 8.207,11.876 8.207,11.876c0,0 -0.355,3.852 -3.653,7.729c-4.489,-3.403 -22.855,-18.512 -22.855,-18.512Z" style="fill:rgb(240,110,82);"/>
                    <path d="M1612.7,312.684l-1.631,1.843l1.782,0.607l1.117,-1.418l-1.268,-1.032Z" style="fill:rgb(240,110,82);"/>
                </g>
                <g>
                    <path d="M1629.17,368.281c-0,0 7.073,0.551 8.443,-0.838c1.371,-1.389 4.448,-3.815 5.442,-11.117c0.995,-7.302 -2.404,-14.229 -2.404,-14.229c-0,0 -2.944,-2.515 -8.014,-2.999c-0.844,5.565 -3.467,29.183 -3.467,29.183Z" style="fill:rgb(240,110,82);"/>
                    <path d="M1630.73,354.536l-2.456,-0.187l0.855,-1.676l1.79,0.24l-0.189,1.623Z" style="fill:rgb(240,110,82);"/>
                </g>
                <path d="M1630.86,331.628l-1.367,-3.029l-4.563,2.059l1.367,3.029l4.563,-2.059Z" style="fill:rgb(240,110,82);"/>
                <path d="M1621.31,333.318c7.409,16.414 0.243,35.689 -15.994,43.016c-16.236,7.327 -35.433,-0.051 -42.843,-16.465c-7.409,-16.414 -0.243,-35.689 15.994,-43.016c16.236,-7.327 35.434,0.051 42.843,16.465Z" style="fill:white;"/>
                <path d="M1626.36,331.039c8.674,19.216 0.244,41.766 -18.764,50.344c-19.008,8.577 -41.497,-0.019 -50.17,-19.235c-8.675,-19.216 -0.245,-41.766 18.763,-50.344c19.008,-8.577 41.497,0.02 50.171,19.235Zm-5.049,2.279c-7.409,-16.414 -26.607,-23.792 -42.843,-16.465c-16.237,7.327 -23.403,26.602 -15.994,43.016c7.41,16.414 26.607,23.792 42.843,16.465c16.237,-7.327 23.403,-26.602 15.994,-43.016Z" style="fill:rgb(240,110,82);"/>
            </g>
            <path d="M1616.85,336.453c0.498,1.101 0.017,2.395 -1.073,2.886c-1.089,0.492 -2.378,-0.003 -2.875,-1.105c-0.497,-1.101 -0.016,-2.394 1.073,-2.886c1.09,-0.492 2.378,0.003 2.875,1.105Z" style="fill:rgb(140,196,184);"/>
            <path d="M1571.93,356.727c0.498,1.101 0.017,2.395 -1.073,2.886c-1.089,0.492 -2.378,-0.003 -2.875,-1.105c-0.497,-1.101 -0.016,-2.394 1.073,-2.886c1.09,-0.492 2.378,0.003 2.875,1.105Z" style="fill:rgb(140,196,184);"/>
            <path d="M1580.84,321.841c1.089,-0.492 2.378,0.003 2.875,1.104c0.497,1.102 0.016,2.395 -1.073,2.887c-1.09,0.492 -2.378,-0.004 -2.875,-1.105c-0.498,-1.101 -0.017,-2.395 1.073,-2.886Z" style="fill:rgb(140,196,184);"/>
            <path d="M1601.35,367.259c1.089,-0.491 2.378,0.004 2.875,1.105c0.497,1.102 0.016,2.395 -1.073,2.887c-1.09,0.491 -2.378,-0.004 -2.875,-1.105c-0.497,-1.102 -0.017,-2.395 1.073,-2.887Z" style="fill:rgb(140,196,184);"/>
            <path d="M1556.81,347.09c0.42,0.154 0.882,-0.064 1.031,-0.486l0.539,-1.529c0.149,-0.422 -0.072,-0.889 -0.492,-1.042l-8.95,-3.267c-0.42,-0.153 -0.882,0.065 -1.031,0.487l-0.539,1.529c-0.149,0.422 0.072,0.889 0.492,1.042l8.95,3.266Z" style="fill:rgb(240,110,82);"/>
            <path d="M1567.31,370.649c0.163,-0.417 0.632,-0.619 1.047,-0.452l1.503,0.608c0.415,0.167 0.62,0.641 0.457,1.058l-3.471,8.871c-0.163,0.417 -0.632,0.619 -1.047,0.451l-1.504,-0.607c-0.414,-0.167 -0.619,-0.642 -0.456,-1.058l3.471,-8.871Z" style="fill:rgb(240,110,82);"/>
            <path d="M1610.85,338.835c0,-0 -14.968,5.843 -21.236,8.672c-0.418,0.188 -0.604,0.681 -0.416,1.099c0.189,0.418 0.681,0.604 1.099,0.415c6.269,-2.829 20.553,-10.186 20.553,-10.186Z" style="fill:rgb(140,196,184);"/>
            <path d="M1595.67,360.94c-0,0 -3.019,-8.684 -4.634,-12.261c-0.186,-0.414 -0.673,-0.598 -1.087,-0.411c-0.413,0.186 -0.597,0.673 -0.411,1.087c1.615,3.577 6.132,11.585 6.132,11.585Z" style="fill:rgb(140,196,184);"/>
        </g>
        <g id="idea-regalo">
            <path d="M1449.08,216.781l-76.401,-0.047l1.522,19.32l76.07,-4.153l-1.191,-15.12Z" style="fill:rgb(229,125,41);"/>
            <path d="M1447.39,232.089l0.156,65.421c0,0 -70.04,1.4 -70.188,-0.475c-0.147,-1.875 -1.003,-61.099 -1.003,-61.099l71.035,-3.847Z" style="fill:rgb(152,25,0);"/>
            <path d="M1447.97,254.222l-71.683,3.207l-0.193,7.729l71.872,-3.107l0.004,-7.829Z" style="fill:rgb(229,125,41);"/>
            <path d="M1418.29,234.916l0.161,63.721l-9.044,-0.27l-2.027,-62.839l10.91,-0.612Z" style="fill:rgb(229,125,41);"/>
            <path d="M1421.48,216.764c0,0 10.633,-26.424 9.234,-32.977c-0.961,-4.5 -3.48,-5.189 -6.228,-5.405c-2.747,-0.215 -11.18,38.377 -11.18,38.377l8.174,0.005Z" style="fill:rgb(229,125,41);"/>
            <path d="M1408.87,217.592c0,0 -10.925,-18.445 -10.658,-23.412c0.182,-3.411 1.959,-4.165 3.959,-4.591c2.001,-0.426 12.725,27.204 12.725,27.204l-6.026,0.799Z" style="fill:rgb(229,125,41);"/>
            <path d="M1417.06,216.761l-3.762,-0.002c3.351,-15.75 6.682,-36.458 11.137,-38.377c2.713,-1.168 6.604,2.138 6.445,6.778c-0.515,0.092 -3.728,-8.874 -6.9,-2.984c-3.719,6.904 -5.559,24.232 -6.92,34.585Z" style="fill:rgb(152,25,0);"/>
            <path d="M1412.12,217.161l2.773,-0.368c-4.31,-11.286 -10.931,-27.199 -12.693,-27.208c-1.704,-0.009 -4.783,1.61 -3.782,6.372c1.037,-6.006 4.129,-4.207 4.561,-3.62c3.505,4.759 6.928,17.323 9.141,24.824Z" style="fill:rgb(152,25,0);"/>
        </g>
        <g id="idea-macchina">
            <rect x="1546.66" y="204.842" width="96.577" height="56.572" style="fill:rgb(84,84,84);"/>
            <rect x="1546.66" y="204.842" width="13.797" height="56.572" style="fill:rgb(98,98,98);"/>
            <rect x="1634.66" y="204.842" width="3.356" height="56.572" style="fill:rgb(70,70,70);"/>
            <rect x="1556.73" y="192.117" width="7.458" height="12.725" style="fill:rgb(91,91,91);"/>
            <rect x="1620.86" y="192.117" width="13.797" height="13.454" style="fill:rgb(200,200,200);"/>
            <rect x="1622.66" y="193.777" width="10.197" height="9.405" style="fill:rgb(255,235,165);"/>
            <rect x="1629.55" y="193.829" width="0.75" height="9.405" style="fill:rgb(255,254,174);"/>
            <rect x="1630.94" y="193.791" width="0.274" height="9.405" style="fill:rgb(255,254,174);"/>
            <ellipse cx="1600.66" cy="233.128" rx="19.494" ry="19.277" style="fill:rgb(182,182,182);"/>
            <ellipse cx="1600.66" cy="233.128" rx="14.728" ry="14.564" style="fill:white;"/>
        </g>
        <g id="idea-tazza">
            <path d="M1141.58,202.675c-17.195,17.377 -36.353,33.316 -57.704,47.649c-0,-0 37.302,45.1 47.287,57.173c1.415,1.711 3.854,2.16 5.786,1.064c19.452,-11.116 37.196,-24.782 52,-42.835c1.376,-1.691 1.365,-4.118 -0.024,-5.798c-9.886,-11.962 -47.345,-57.253 -47.345,-57.253Z" style="fill:rgb(235,235,235);"/>
            <path d="M1174.23,243.208l2.17,-1.793c1.42,-1.172 2.321,-2.854 2.505,-4.676c0.183,-1.822 -0.366,-3.634 -1.527,-5.037l-10.253,-12.396c-1.161,-1.404 -2.838,-2.284 -4.663,-2.448c-1.825,-0.163 -3.648,0.404 -5.069,1.577l-2.168,1.79c-0.865,-0.948 -1.733,-1.889 -2.605,-2.822l5.46,-4.509c1.42,-1.172 3.243,-1.74 5.068,-1.576c1.825,0.163 3.502,1.043 4.663,2.447l15.142,18.307c1.161,1.404 1.71,3.216 1.527,5.037c-0.184,1.822 -1.084,3.504 -2.505,4.677l-5.459,4.508c-0.758,-1.036 -1.52,-2.065 -2.286,-3.086Z" style="fill:rgb(235,235,235);"/>
            <path d="M1110.01,223.216c15.924,-13.149 30.069,-22.353 31.568,-20.541c1.499,1.813 -10.212,13.959 -26.136,27.108c-15.924,13.149 -30.069,22.353 -31.568,20.541c-1.499,-1.813 10.212,-13.96 26.136,-27.108Z" style="fill:rgb(44,44,44);"/>
            <path d="M1133.04,248.453c-0.52,-7.049 5.79,-12.259 10.783,-12.643c4.992,-0.383 8.668,4.06 9.188,11.109c0.548,5.157 -2.375,13.179 -5.27,19.309c-6.57,1.686 -15.006,3.043 -19.971,1.534c-6.83,-1.839 -10.505,-6.282 -9.188,-11.11c1.318,-4.827 7.628,-10.037 14.458,-8.199Z" style="fill:rgb(172,53,53);"/>
        </g>
        <g id="idea-scarpa2">
            <path d="M1218.3,318.646c-0,0 14.718,17.026 19.786,19.841c5.068,2.814 19.161,7.689 22.076,7.826c7.012,0.069 11.317,0.892 12.289,2.609c0.972,1.716 1.874,9.817 1.874,9.817c0,-0 -7.706,9.131 -23.604,8.169c-15.898,-0.961 -14.996,-1.716 -19.786,-1.853c-4.79,-0.137 -20.133,-0 -24.021,0.137c-3.888,0.137 -16.176,-0.206 -16.176,-0.206c0,0 -3.61,-0.7 -3.679,-2.512c-0.07,-1.813 -0,-7.854 0.694,-8.472c0.694,-0.618 0.833,-0.137 0.833,-0.137c0,-0 -2.43,-2.266 -1.111,-7.621c1.319,-5.355 3.402,-11.533 4.027,-13.112c0.625,-1.579 -0.555,-16.133 -0.555,-16.133l18.189,0.343c-0,-0 1.249,-3.57 2.291,-3.295c1.041,0.274 1.874,2.952 6.873,4.599Z" style="fill:rgb(115,151,86);"/>
            <path d="M1273.38,351.147c0.667,3.018 1.176,7.59 1.176,7.59c0,0 -7.746,9.179 -23.728,8.213c-15.982,-0.967 -15.074,-1.726 -19.89,-1.864c-4.815,-0.138 -20.238,0 -24.147,0.138c-3.908,0.138 -16.26,-0.207 -16.26,-0.207c-0,0 -3.629,-0.703 -3.699,-2.525c-0.07,-1.823 -0,-7.896 0.698,-8.517c0.359,-0.319 0.637,-0.515 0.757,-0.467c0.091,0.108 28.432,2.934 42.396,2.84c15.95,-0.108 37.487,-1.24 42.697,-5.201Z" style="fill:rgb(193,202,155);"/>
            <ellipse cx="1220.74" cy="323.831" rx="0.844" ry="0.835" style="fill:rgb(62,78,87);stroke:rgb(25,34,39);stroke-width:0.67px;"/>
            <ellipse cx="1224.59" cy="327.934" rx="0.844" ry="0.835" style="fill:rgb(62,78,87);stroke:rgb(25,34,39);stroke-width:0.67px;"/>
            <ellipse cx="1222.63" cy="325.702" rx="0.844" ry="0.835" style="fill:rgb(62,78,87);stroke:rgb(25,34,39);stroke-width:0.67px;"/>
            <ellipse cx="1226.49" cy="329.805" rx="0.844" ry="0.835" style="fill:rgb(62,78,87);stroke:rgb(25,34,39);stroke-width:0.67px;"/>
        </g>
        <g id="idea-pianta">
            <g>
                <path d="M1290.44,384.811c0,-0 3.407,-1.787 8.578,-8.867c7.204,-9.863 7.74,-21.48 21.596,-22.835c13.856,-1.355 13.897,16.934 3.637,14.29c-16.034,-4.132 -12.397,15.216 -33.811,17.412Z" style="fill:rgb(96,132,87);"/>
                <path d="M1376.36,336.817c-0,-0 -3.307,1.964 -12.055,2.658c-12.188,0.968 -22.382,-4.655 -30.79,6.426c-8.407,11.081 7.179,20.687 10.292,10.573c4.865,-15.805 19.473,-2.585 32.553,-19.657Z" style="fill:rgb(96,132,87);"/>
            </g>
            <path d="M1340.59,376.215l-23.965,-51.304c-3.046,-7.468 -5.012,-14.716 3.954,-19.738" style="fill:none;stroke:rgb(96,132,87);stroke-width:5.6px;"/>
            <g>
                <path d="M1357.9,362.701l-38.771,18.128c0,-0 10.908,23.353 17.554,37.58c1.327,2.841 3.729,5.038 6.677,6.108c2.947,1.07 6.199,0.925 9.04,-0.403c4.745,-2.218 10.363,-4.845 15.321,-7.164c7.036,-3.289 10.074,-11.658 6.787,-18.694c-6.684,-14.309 -16.608,-35.555 -16.608,-35.555Z" style="fill:rgb(240,110,82);"/>
                <path d="M1360.46,361.503l-43.895,20.524l4.158,8.901l43.895,-20.524l-4.158,-8.901Z" style="fill:rgb(240,110,82);"/>
            </g>
            <path d="M1325.51,286.689c7.409,-3.464 16.203,-0.327 19.626,7.001c3.423,7.329 0.188,16.091 -7.221,19.555c-7.409,3.464 -16.203,0.327 -19.626,-7.001c-3.423,-7.329 -0.187,-16.091 7.221,-19.555Z" style="fill:rgb(216,180,45);"/>
            <g>
                <g>
                    <path d="M1317.59,268.329c1.049,-0.49 3.876,3.34 6.309,8.548c2.433,5.208 3.556,9.834 2.506,10.325c-1.049,0.491 -3.876,-3.339 -6.309,-8.547c-2.433,-5.208 -3.556,-9.835 -2.506,-10.326Z" style="fill:rgb(59,48,6);"/>
                    <path d="M1338.24,312.554c1.049,-0.491 3.876,3.339 6.309,8.547c2.433,5.208 3.556,9.835 2.506,10.325c-1.049,0.491 -3.877,-3.339 -6.309,-8.547c-2.433,-5.208 -3.556,-9.834 -2.506,-10.325Z" style="fill:rgb(59,48,6);"/>
                </g>
                <g>
                    <path d="M1364.22,284.964c0.485,1.039 -3.396,3.88 -8.661,6.342c-5.266,2.462 -9.934,3.618 -10.419,2.58c-0.485,-1.038 3.396,-3.88 8.662,-6.342c5.265,-2.462 9.933,-3.618 10.418,-2.58Z" style="fill:rgb(59,48,6);"/>
                    <path d="M1319.51,305.87c0.485,1.038 -3.396,3.88 -8.662,6.341c-5.265,2.462 -9.933,3.618 -10.418,2.58c-0.485,-1.038 3.396,-3.879 8.661,-6.341c5.266,-2.462 9.934,-3.618 10.419,-2.58Z" style="fill:rgb(59,48,6);"/>
                </g>
            </g>
            <g>
                <g>
                    <path d="M1299.35,288.115c0.4,-1.081 5.143,-0.382 10.586,1.56c5.444,1.942 9.539,4.396 9.14,5.477c-0.4,1.081 -5.143,0.382 -10.586,-1.56c-5.444,-1.942 -9.539,-4.396 -9.14,-5.477Z" style="fill:rgb(59,48,6);"/>
                    <path d="M1345.57,304.604c0.399,-1.081 5.143,-0.382 10.586,1.56c5.444,1.942 9.539,4.396 9.14,5.477c-0.4,1.081 -5.143,0.382 -10.586,-1.56c-5.444,-1.942 -9.539,-4.396 -9.14,-5.477Z" style="fill:rgb(59,48,6);"/>
                </g>
                <g>
                    <path d="M1344.46,267.024c1.085,0.387 0.339,5.105 -1.663,10.528c-2.003,5.424 -4.51,9.513 -5.595,9.126c-1.085,-0.388 -0.34,-5.105 1.663,-10.528c2.003,-5.424 4.51,-9.513 5.595,-9.126Z" style="fill:rgb(59,48,6);"/>
                    <path d="M1327.45,313.078c1.085,0.387 0.34,5.105 -1.663,10.528c-2.003,5.423 -4.51,9.512 -5.595,9.125c-1.085,-0.387 -0.34,-5.104 1.663,-10.527c2.003,-5.424 4.51,-9.513 5.595,-9.126Z" style="fill:rgb(59,48,6);"/>
                </g>
            </g>
            <g>
                <g>
                    <path d="M1306.16,276.809c0.772,-0.861 4.905,1.531 9.223,5.339c4.318,3.808 7.197,7.599 6.425,8.461c-0.772,0.862 -4.904,-1.531 -9.222,-5.339c-4.318,-3.808 -7.198,-7.599 -6.426,-8.461Z" style="fill:rgb(59,48,6);"/>
                    <path d="M1342.83,309.147c0.771,-0.862 4.904,1.531 9.222,5.339c4.318,3.808 7.197,7.599 6.426,8.461c-0.772,0.861 -4.905,-1.531 -9.223,-5.339c-4.318,-3.809 -7.197,-7.6 -6.425,-8.461Z" style="fill:rgb(59,48,6);"/>
                </g>
                <g>
                    <path d="M1355.78,273.695c0.861,0.759 -1.584,4.884 -5.457,9.207c-3.872,4.322 -7.715,7.215 -8.575,6.456c-0.861,-0.759 1.584,-4.885 5.456,-9.207c3.873,-4.322 7.715,-7.215 8.576,-6.456Z" style="fill:rgb(59,48,6);"/>
                    <path d="M1322.9,310.398c0.861,0.759 -1.584,4.884 -5.456,9.207c-3.873,4.322 -7.715,7.215 -8.576,6.456c-0.861,-0.759 1.584,-4.885 5.457,-9.207c3.872,-4.322 7.715,-7.215 8.575,-6.456Z" style="fill:rgb(59,48,6);"/>
                </g>
            </g>
            <g>
                <g>
                    <path d="M1297.24,302.08c-0.063,-1.146 4.588,-2.371 10.38,-2.735c5.791,-0.363 10.544,0.272 10.607,1.418c0.063,1.146 -4.588,2.371 -10.38,2.735c-5.791,0.363 -10.544,-0.272 -10.607,-1.418Z" style="fill:rgb(59,48,6);"/>
                    <path d="M1346.42,298.993c-0.063,-1.146 4.588,-2.371 10.38,-2.735c5.791,-0.363 10.544,0.272 10.607,1.418c0.063,1.146 -4.588,2.371 -10.38,2.735c-5.791,0.363 -10.544,-0.272 -10.607,-1.418Z" style="fill:rgb(59,48,6);"/>
                </g>
                <g>
                    <path d="M1330.41,265.052c1.154,-0.073 2.347,4.536 2.663,10.285c0.315,5.749 -0.366,10.475 -1.521,10.548c-1.154,0.072 -2.347,-4.536 -2.663,-10.285c-0.315,-5.75 0.367,-10.476 1.521,-10.548Z" style="fill:rgb(59,48,6);"/>
                    <path d="M1333.09,313.871c1.154,-0.073 2.347,4.536 2.662,10.285c0.316,5.749 -0.366,10.476 -1.52,10.548c-1.154,0.073 -2.348,-4.536 -2.663,-10.285c-0.315,-5.749 0.366,-10.476 1.521,-10.548Z" style="fill:rgb(59,48,6);"/>
                </g>
            </g>
        </g>
    </g>
    <defs>
        <linearGradient id="_Linear3" x1="0" y1="0" x2="1" y2="0" gradientUnits="userSpaceOnUse" gradientTransform="matrix(1.83978e-15,30.0414,-30.0459,1.83951e-15,1096.26,762.69)"><stop offset="0" style="stop-color:rgb(181,181,181);stop-opacity:1"/><stop offset="1" style="stop-color:rgb(120,120,120);stop-opacity:1"/></linearGradient>
    </defs>
</svg>
