<?xml version="1.0" encoding="UTF-8" standalone="no"?>
<!DOCTYPE svg PUBLIC "-//W3C//DTD SVG 1.1//EN" "http://www.w3.org/Graphics/SVG/1.1/DTD/svg11.dtd">
<svg width="100%" height="100%" viewBox="0 0 583 386" version="1.1" xmlns="http://www.w3.org/2000/svg" xmlns:xlink="http://www.w3.org/1999/xlink" xml:space="preserve" xmlns:serif="http://www.serif.com/" style="fill-rule:evenodd;clip-rule:evenodd;stroke-linecap:round;stroke-linejoin:round;stroke-miterlimit:1.5;">
    <rect id="nuvola-prodotti" x="0" y="0.415" width="582.395" height="384.63" style="fill:none;"/>
    <g id="nuvola-prodotti1" serif:id="nuvola-prodotti">
        <path d="M188.278,99.61c26.57,-38.114 69.545,-62.442 117.454,-61.341c31.539,0.725 60.435,12.361 83.572,31.441c10.162,-17.422 28.488,-28.866 49.126,-28.391c30.988,0.712 55.528,28.024 54.767,60.953c-0.085,3.717 -0.49,7.349 -1.186,10.869c38.214,15.617 64.907,55.466 63.844,101.477c-1.354,58.604 -47.227,105.155 -102.377,103.887c-20.505,-0.471 -39.423,-7.486 -55.031,-19.127c-26.14,25.729 -61.328,41.14 -99.676,40.259c-45.589,-1.048 -85.653,-24.892 -110.779,-61.056c-8.324,2.981 -17.21,4.689 -26.458,4.901c-24.057,0.553 -46.132,-9.115 -62.53,-25.256c-9.791,7.303 -21.66,11.704 -34.523,12c-34.597,0.795 -63.375,-28.408 -64.224,-65.173c-0.667,-28.864 16.078,-53.862 40.051,-63.66c-0.436,-2.208 -0.69,-4.486 -0.744,-6.818c-0.477,-20.657 14.918,-37.791 34.357,-38.238c12.947,-0.298 24.443,6.881 30.819,17.811c14.515,-11.97 32.641,-19.269 52.427,-19.724c10.891,-0.25 21.376,1.594 31.111,5.186Z" style="fill:rgb(255,233,152);fill-opacity:0.47;"/>
        <g id="idea-scarpa">
            <path d="M174.82,102.076c-0,-0 16.109,15.999 21.42,18.445c5.311,2.446 19.853,6.28 22.794,6.197c7.053,-0.461 11.443,0.042 12.552,1.693c1.11,1.652 2.643,9.725 2.643,9.725c0,0 -7.039,9.76 -23.092,9.996c-16.053,0.236 -15.205,-0.591 -20.03,-0.367c-4.825,0.224 -20.235,1.522 -24.132,1.954c-3.897,0.432 -16.274,1.016 -16.274,1.016c0,0 -3.682,-0.43 -3.892,-2.247c-0.21,-1.816 -0.608,-7.894 0.042,-8.567c0.65,-0.674 0.827,-0.201 0.827,-0.201c0,-0 -2.617,-2.093 -1.706,-7.575c0.912,-5.482 2.528,-11.85 3.034,-13.484c0.506,-1.634 -1.806,-16.173 -1.806,-16.173l18.308,-1.03c0,-0 0.98,-3.683 2.048,-3.485c1.068,0.197 2.112,2.825 7.264,4.103Z" style="fill:rgb(86,129,151);"/>
            <path d="M232.691,130.577c0.903,2.983 1.769,7.54 1.769,7.54c-0,0 -7.077,9.811 -23.214,10.048c-16.138,0.238 -15.284,-0.594 -20.135,-0.368c-4.851,0.225 -20.342,1.53 -24.259,1.964c-3.917,0.434 -16.359,1.021 -16.359,1.021c-0,0 -3.702,-0.432 -3.913,-2.259c-0.211,-1.826 -0.611,-7.935 0.043,-8.612c0.336,-0.348 0.6,-0.566 0.725,-0.526c0.1,0.101 28.803,0.798 42.831,-0.352c16.022,-1.315 37.581,-4.08 42.512,-8.456Z" style="fill:rgb(155,185,202);"/>
            <path d="M177.607,106.263c0.468,-0.035 0.878,0.312 0.913,0.775c0.036,0.464 -0.316,0.868 -0.784,0.904c-0.468,0.035 -0.878,-0.313 -0.913,-0.776c-0.036,-0.463 0.316,-0.868 0.784,-0.903Z" style="fill:rgb(62,78,87);stroke:rgb(25,34,39);stroke-width:0.67px;"/>
            <path d="M181.802,110.095c0.468,-0.035 0.878,0.313 0.913,0.776c0.036,0.463 -0.315,0.868 -0.784,0.903c-0.468,0.035 -0.878,-0.312 -0.913,-0.776c-0.036,-0.463 0.316,-0.867 0.784,-0.903Z" style="fill:rgb(62,78,87);stroke:rgb(25,34,39);stroke-width:0.67px;"/>
            <path d="M179.654,108.001c0.468,-0.035 0.878,0.312 0.913,0.775c0.036,0.464 -0.315,0.868 -0.784,0.904c-0.468,0.035 -0.878,-0.313 -0.913,-0.776c-0.036,-0.463 0.316,-0.868 0.784,-0.903Z" style="fill:rgb(62,78,87);stroke:rgb(25,34,39);stroke-width:0.67px;"/>
            <path d="M183.849,111.833c0.468,-0.035 0.878,0.313 0.913,0.776c0.036,0.463 -0.315,0.868 -0.784,0.903c-0.468,0.035 -0.877,-0.312 -0.913,-0.775c-0.036,-0.464 0.316,-0.868 0.784,-0.904Z" style="fill:rgb(62,78,87);stroke:rgb(25,34,39);stroke-width:0.67px;"/>
        </g>
        <g id="idea-vaso">
            <g>
                <g>
                    <path d="M406.805,219.837c13.846,-0.545 25.161,0.824 25.251,3.055c0.09,2.232 -11.079,4.486 -24.925,5.032c-13.847,0.546 -25.161,-0.823 -25.251,-3.055c-0.09,-2.231 11.079,-4.486 24.925,-5.032Z" style="fill:rgb(151,86,144);"/>
                    <path d="M432.068,223.21c-20.573,6.023 -49.902,2.235 -49.902,2.235c-0,-0 12.685,12.011 15.028,26.137c2.344,14.125 -26.053,25.019 -21.975,49.147c4.078,24.128 13.911,24.926 35.816,24.062c21.904,-0.863 -21.071,0.831 0.833,-0.032c21.904,-0.864 31.642,-2.432 33.766,-26.805c2.123,-24.372 -27.061,-32.997 -25.861,-47.262c1.199,-14.265 12.295,-27.482 12.295,-27.482Z" style="fill:rgb(197,160,193);"/>
                </g>
            </g>
            <path d="M392.843,322.524c-4.187,-3.318 -6.878,-9.109 -8.553,-19.019c-3.897,-23.058 23.24,-33.468 21,-46.967c-2.24,-13.499 2.066,-22.689 19.672,-24.974c2.183,-3.447 2.962,-4.817 2.962,-4.817c-19.66,5.756 -32.185,13 -29.945,26.499c2.24,13.499 -24.897,23.909 -21,46.967c2.498,14.779 7.256,20.398 15.864,22.311Z" style="fill:rgb(217,194,215);"/>
        </g>
        <g id="idea-sveglia">
            <g>
                <path d="M566.943,231.674c1.268,2.808 0.042,6.106 -2.736,7.359c-2.778,1.254 -6.062,-0.008 -7.33,-2.816c-1.268,-2.809 -0.042,-6.106 2.736,-7.36c2.778,-1.253 6.062,0.009 7.33,2.817Z" style="fill:rgb(240,110,82);"/>
                <g>
                    <path d="M529.255,209.761c0,0 4.688,-5.318 6.64,-5.276c1.952,0.042 5.851,-0.361 11.661,4.183c5.811,4.544 8.208,11.877 8.208,11.877c-0,0 -0.356,3.852 -3.654,7.729c-4.489,-3.403 -22.855,-18.513 -22.855,-18.513Z" style="fill:rgb(240,110,82);"/>
                    <path d="M539.968,218.531l-1.631,1.844l1.783,0.607l1.116,-1.418l-1.268,-1.033Z" style="fill:rgb(240,110,82);"/>
                </g>
                <g>
                    <path d="M556.434,274.129c-0,-0 7.073,0.55 8.444,-0.839c1.37,-1.388 4.447,-3.814 5.442,-11.116c0.994,-7.303 -2.405,-14.229 -2.405,-14.229c0,-0 -2.943,-2.515 -8.014,-2.999c-0.844,5.565 -3.467,29.183 -3.467,29.183Z" style="fill:rgb(240,110,82);"/>
                    <path d="M557.994,260.383l-2.456,-0.186l0.855,-1.676l1.79,0.24l-0.189,1.622Z" style="fill:rgb(240,110,82);"/>
                </g>
                <path d="M558.127,237.475l-1.367,-3.028l-4.563,2.059l1.367,3.028l4.563,-2.059Z" style="fill:rgb(240,110,82);"/>
                <path d="M548.575,239.166c7.41,16.414 0.243,35.689 -15.993,43.016c-16.237,7.327 -35.434,-0.051 -42.844,-16.465c-7.409,-16.415 -0.242,-35.689 15.994,-43.016c16.236,-7.327 35.434,0.05 42.843,16.465Z" style="fill:white;"/>
                <path d="M553.624,236.887c8.674,19.216 0.244,41.766 -18.764,50.344c-19.007,8.577 -41.496,-0.02 -50.17,-19.235c-8.674,-19.217 -0.244,-41.767 18.764,-50.344c19.007,-8.578 41.496,0.019 50.17,19.235Zm-5.049,2.279c-7.409,-16.415 -26.607,-23.792 -42.843,-16.465c-16.236,7.327 -23.403,26.601 -15.994,43.016c7.41,16.414 26.607,23.792 42.844,16.465c16.236,-7.327 23.403,-26.602 15.993,-43.016Z" style="fill:rgb(240,110,82);"/>
            </g>
            <path d="M544.123,242.3c0.497,1.102 0.016,2.395 -1.074,2.887c-1.089,0.491 -2.377,-0.004 -2.875,-1.105c-0.497,-1.101 -0.016,-2.395 1.074,-2.887c1.089,-0.491 2.377,0.004 2.875,1.105Z" style="fill:rgb(140,196,184);"/>
            <path d="M499.196,262.574c0.497,1.102 0.016,2.395 -1.074,2.887c-1.089,0.492 -2.377,-0.004 -2.875,-1.105c-0.497,-1.101 -0.016,-2.395 1.074,-2.886c1.089,-0.492 2.377,0.003 2.875,1.104Z" style="fill:rgb(140,196,184);"/>
            <path d="M508.111,227.688c1.09,-0.492 2.378,0.003 2.875,1.105c0.497,1.101 0.016,2.395 -1.073,2.886c-1.09,0.492 -2.378,-0.003 -2.875,-1.104c-0.497,-1.102 -0.016,-2.395 1.073,-2.887Z" style="fill:rgb(140,196,184);"/>
            <path d="M528.613,273.107c1.09,-0.492 2.378,0.003 2.875,1.105c0.497,1.101 0.016,2.395 -1.073,2.886c-1.09,0.492 -2.378,-0.003 -2.875,-1.105c-0.497,-1.101 -0.016,-2.394 1.073,-2.886Z" style="fill:rgb(140,196,184);"/>
            <path d="M484.082,252.938c0.42,0.153 0.882,-0.065 1.031,-0.487l0.539,-1.529c0.149,-0.421 -0.072,-0.889 -0.492,-1.042l-8.95,-3.266c-0.42,-0.153 -0.882,0.065 -1.031,0.487l-0.539,1.528c-0.149,0.422 0.072,0.889 0.492,1.043l8.95,3.266Z" style="fill:rgb(240,110,82);"/>
            <path d="M494.576,276.496c0.163,-0.416 0.633,-0.619 1.047,-0.451l1.504,0.607c0.414,0.168 0.619,0.642 0.456,1.059l-3.471,8.871c-0.163,0.416 -0.632,0.619 -1.047,0.451l-1.503,-0.607c-0.415,-0.168 -0.62,-0.642 -0.457,-1.059l3.471,-8.871Z" style="fill:rgb(240,110,82);"/>
            <path d="M538.117,244.682c-0,0 -14.969,5.844 -21.237,8.672c-0.418,0.189 -0.604,0.681 -0.415,1.099c0.188,0.418 0.681,0.604 1.099,0.416c6.268,-2.829 20.553,-10.187 20.553,-10.187Z" style="fill:rgb(140,196,184);"/>
            <path d="M522.934,266.788c-0,-0 -3.019,-8.685 -4.633,-12.262c-0.187,-0.413 -0.674,-0.597 -1.088,-0.411c-0.413,0.187 -0.597,0.674 -0.41,1.087c1.614,3.577 6.131,11.586 6.131,11.586Z" style="fill:rgb(140,196,184);"/>
        </g>
        <g id="idea-regalo">
            <path d="M376.344,122.629l-76.401,-0.047l1.522,19.319l76.07,-4.153l-1.191,-15.119Z" style="fill:rgb(229,125,41);"/>
            <path d="M374.661,137.937l0.157,65.421c-0,-0 -70.041,1.399 -70.189,-0.475c-0.147,-1.875 -1.003,-61.1 -1.003,-61.1l71.035,-3.846Z" style="fill:rgb(152,25,0);"/>
            <path d="M375.234,160.069l-71.683,3.207l-0.193,7.729l71.873,-3.106l0.003,-7.83Z" style="fill:rgb(229,125,41);"/>
            <path d="M345.554,140.764l0.161,63.721l-9.044,-0.271l-2.026,-62.839l10.909,-0.611Z" style="fill:rgb(229,125,41);"/>
            <path d="M348.744,122.612c-0,-0 10.633,-26.425 9.233,-32.978c-0.961,-4.499 -3.48,-5.189 -6.227,-5.404c-2.747,-0.215 -11.181,38.377 -11.181,38.377l8.175,0.005Z" style="fill:rgb(229,125,41);"/>
            <path d="M336.137,123.44c0,-0 -10.925,-18.445 -10.658,-23.413c0.183,-3.411 1.96,-4.164 3.96,-4.59c2,-0.426 12.724,27.203 12.724,27.203l-6.026,0.8Z" style="fill:rgb(229,125,41);"/>
            <path d="M344.331,122.609l-3.762,-0.002c3.351,-15.751 6.682,-36.458 11.138,-38.377c2.713,-1.169 6.603,2.137 6.444,6.778c-0.515,0.092 -3.728,-8.875 -6.9,-2.985c-3.719,6.905 -5.559,24.233 -6.92,34.586Z" style="fill:rgb(152,25,0);"/>
            <path d="M339.39,123.008l2.773,-0.368c-4.31,-11.285 -10.931,-27.199 -12.693,-27.208c-1.704,-0.008 -4.783,1.611 -3.781,6.373c1.036,-6.007 4.128,-4.208 4.56,-3.62c3.505,4.758 6.928,17.323 9.141,24.823Z" style="fill:rgb(152,25,0);"/>
        </g>
        <g id="idea-macchina">
            <rect x="473.925" y="110.69" width="96.577" height="56.572" style="fill:rgb(84,84,84);"/>
            <rect x="473.925" y="110.69" width="13.797" height="56.572" style="fill:rgb(98,98,98);"/>
            <rect x="561.926" y="110.69" width="3.356" height="56.572" style="fill:rgb(70,70,70);"/>
            <rect x="483.993" y="97.965" width="7.458" height="12.725" style="fill:rgb(91,91,91);"/>
            <rect x="548.129" y="97.965" width="13.797" height="13.454" style="fill:rgb(200,200,200);"/>
            <rect x="549.929" y="99.625" width="10.197" height="9.405" style="fill:rgb(255,235,165);"/>
            <rect x="556.815" y="99.676" width="0.75" height="9.405" style="fill:rgb(255,254,174);"/>
            <rect x="558.206" y="99.639" width="0.274" height="9.405" style="fill:rgb(255,254,174);"/>
            <ellipse cx="527.933" cy="138.976" rx="19.494" ry="19.277" style="fill:rgb(182,182,182);"/>
            <ellipse cx="527.933" cy="138.976" rx="14.728" ry="14.564" style="fill:white;"/>
        </g>
        <g id="idea-tazza">
            <path d="M68.846,108.523c-17.195,17.377 -36.353,33.316 -57.704,47.648c0,0 37.302,45.101 47.287,57.173c1.415,1.712 3.855,2.161 5.786,1.065c19.452,-11.116 37.196,-24.782 52.001,-42.835c1.375,-1.692 1.365,-4.119 -0.025,-5.799c-9.885,-11.961 -47.345,-57.252 -47.345,-57.252Z" style="fill:rgb(235,235,235);"/>
            <path d="M101.498,149.055l2.171,-1.792c1.42,-1.173 2.32,-2.855 2.504,-4.676c0.183,-1.822 -0.366,-3.634 -1.527,-5.038l-10.253,-12.396c-1.161,-1.403 -2.838,-2.284 -4.663,-2.447c-1.825,-0.163 -3.648,0.404 -5.068,1.576l-2.169,1.791c-0.864,-0.948 -1.733,-1.889 -2.605,-2.823l5.46,-4.508c1.42,-1.173 3.243,-1.74 5.068,-1.577c1.825,0.164 3.503,1.044 4.663,2.447l15.142,18.308c1.161,1.403 1.71,3.215 1.527,5.037c-0.183,1.822 -1.084,3.504 -2.504,4.676l-5.46,4.509c-0.758,-1.037 -1.52,-2.066 -2.286,-3.087Z" style="fill:rgb(235,235,235);"/>
            <path d="M37.278,129.063c15.924,-13.149 30.069,-22.353 31.568,-20.54c1.499,1.812 -10.212,13.959 -26.136,27.108c-15.924,13.149 -30.069,22.353 -31.568,20.54c-1.499,-1.812 10.212,-13.959 26.136,-27.108Z" style="fill:rgb(44,44,44);"/>
            <path d="M60.306,154.301c-0.52,-7.049 5.79,-12.26 10.783,-12.643c4.993,-0.384 8.668,4.06 9.188,11.109c0.548,5.156 -2.375,13.179 -5.27,19.308c-6.57,1.686 -15.005,3.043 -19.971,1.534c-6.83,-1.838 -10.505,-6.282 -9.188,-11.109c1.318,-4.827 7.628,-10.038 14.458,-8.199Z" style="fill:rgb(172,53,53);"/>
        </g>
        <g id="idea-scarpa2">
            <path d="M145.565,224.494c-0,-0 14.718,17.025 19.786,19.84c5.068,2.815 19.161,7.689 22.077,7.826c7.012,0.069 11.316,0.893 12.288,2.609c0.972,1.717 1.874,9.817 1.874,9.817c0,0 -7.706,9.131 -23.604,8.17c-15.898,-0.961 -14.996,-1.716 -19.786,-1.854c-4.79,-0.137 -20.133,0 -24.021,0.138c-3.887,0.137 -16.175,-0.206 -16.175,-0.206c-0,-0 -3.611,-0.7 -3.68,-2.513c-0.069,-1.812 0,-7.854 0.694,-8.471c0.695,-0.618 0.833,-0.138 0.833,-0.138c0,0 -2.429,-2.265 -1.11,-7.62c1.319,-5.355 3.401,-11.534 4.026,-13.113c0.625,-1.579 -0.555,-16.133 -0.555,-16.133l18.189,0.343c-0,0 1.25,-3.569 2.291,-3.295c1.041,0.275 1.874,2.952 6.873,4.6Z" style="fill:rgb(115,151,86);"/>
            <path d="M200.644,256.994c0.666,3.019 1.175,7.591 1.175,7.591c0,-0 -7.746,9.178 -23.728,8.212c-15.981,-0.966 -15.074,-1.725 -19.89,-1.863c-4.815,-0.138 -20.238,-0 -24.146,0.138c-3.909,0.138 -16.261,-0.207 -16.261,-0.207c-0,-0 -3.629,-0.704 -3.699,-2.526c-0.07,-1.822 0,-7.895 0.698,-8.516c0.359,-0.32 0.637,-0.516 0.758,-0.467c0.09,0.108 28.432,2.934 42.396,2.839c15.949,-0.108 37.486,-1.239 42.697,-5.201Z" style="fill:rgb(193,202,155);"/>
            <ellipse cx="148.004" cy="229.678" rx="0.844" ry="0.835" style="fill:rgb(62,78,87);stroke:rgb(25,34,39);stroke-width:0.67px;"/>
            <ellipse cx="151.862" cy="233.781" rx="0.844" ry="0.835" style="fill:rgb(62,78,87);stroke:rgb(25,34,39);stroke-width:0.67px;"/>
            <ellipse cx="149.896" cy="231.55" rx="0.844" ry="0.835" style="fill:rgb(62,78,87);stroke:rgb(25,34,39);stroke-width:0.67px;"/>
            <ellipse cx="153.755" cy="235.653" rx="0.844" ry="0.835" style="fill:rgb(62,78,87);stroke:rgb(25,34,39);stroke-width:0.67px;"/>
        </g>
        <g id="idea-pianta">
            <g>
                <path d="M217.705,290.658c-0,0 3.406,-1.786 8.577,-8.866c7.204,-9.864 7.74,-21.481 21.596,-22.836c13.857,-1.355 13.897,16.934 3.637,14.29c-16.034,-4.131 -12.397,15.217 -33.81,17.412Z" style="fill:rgb(96,132,87);"/>
                <path d="M303.626,242.665c0,-0 -3.307,1.963 -12.055,2.658c-12.188,0.968 -22.382,-4.655 -30.789,6.426c-8.408,11.081 7.178,20.686 10.291,10.573c4.865,-15.806 19.473,-2.586 32.553,-19.657Z" style="fill:rgb(96,132,87);"/>
            </g>
            <path d="M267.86,282.063l-23.965,-51.304c-3.046,-7.468 -5.013,-14.717 3.953,-19.738" style="fill:none;stroke:rgb(96,132,87);stroke-width:5.6px;"/>
            <g>
                <path d="M285.166,268.548l-38.771,18.128c0,0 10.909,23.353 17.554,37.581c1.328,2.841 3.729,5.038 6.677,6.108c2.947,1.07 6.199,0.925 9.04,-0.403c4.745,-2.219 10.363,-4.846 15.322,-7.164c7.035,-3.29 10.073,-11.658 6.786,-18.695c-6.684,-14.308 -16.608,-35.555 -16.608,-35.555Z" style="fill:rgb(240,110,82);"/>
                <path d="M287.728,267.351l-43.895,20.523l4.158,8.901l43.895,-20.523l-4.158,-8.901Z" style="fill:rgb(240,110,82);"/>
            </g>
            <path d="M252.782,192.537c7.408,-3.464 16.203,-0.327 19.626,7.001c3.423,7.328 0.187,16.09 -7.222,19.554c-7.409,3.464 -16.203,0.327 -19.626,-7.001c-3.423,-7.328 -0.187,-16.09 7.222,-19.554Z" style="fill:rgb(216,180,45);"/>
            <g>
                <g>
                    <path d="M244.854,174.177c1.05,-0.491 3.877,3.339 6.309,8.547c2.433,5.208 3.556,9.835 2.507,10.325c-1.05,0.491 -3.877,-3.339 -6.31,-8.547c-2.432,-5.208 -3.555,-9.834 -2.506,-10.325Z" style="fill:rgb(59,48,6);"/>
                    <path d="M265.512,218.401c1.049,-0.49 3.876,3.34 6.309,8.548c2.433,5.208 3.556,9.834 2.506,10.325c-1.049,0.491 -3.876,-3.339 -6.309,-8.547c-2.433,-5.208 -3.556,-9.835 -2.506,-10.326Z" style="fill:rgb(59,48,6);"/>
                </g>
                <g>
                    <path d="M291.486,190.812c0.485,1.038 -3.396,3.88 -8.661,6.342c-5.265,2.461 -9.934,3.617 -10.419,2.579c-0.485,-1.038 3.396,-3.879 8.662,-6.341c5.265,-2.462 9.934,-3.618 10.418,-2.58Z" style="fill:rgb(59,48,6);"/>
                    <path d="M246.775,211.718c0.485,1.038 -3.396,3.879 -8.661,6.341c-5.266,2.462 -9.934,3.618 -10.419,2.58c-0.485,-1.038 3.396,-3.88 8.661,-6.342c5.266,-2.462 9.934,-3.618 10.419,-2.579Z" style="fill:rgb(59,48,6);"/>
                </g>
            </g>
            <g>
                <g>
                    <path d="M226.617,193.963c0.399,-1.081 5.142,-0.382 10.586,1.559c5.443,1.942 9.538,4.396 9.139,5.477c-0.399,1.081 -5.143,0.382 -10.586,-1.559c-5.443,-1.942 -9.539,-4.396 -9.139,-5.477Z" style="fill:rgb(59,48,6);"/>
                    <path d="M272.839,210.452c0.4,-1.081 5.143,-0.382 10.586,1.559c5.444,1.942 9.539,4.396 9.14,5.477c-0.399,1.081 -5.143,0.382 -10.586,-1.559c-5.444,-1.942 -9.539,-4.396 -9.14,-5.477Z" style="fill:rgb(59,48,6);"/>
                </g>
                <g>
                    <path d="M271.724,172.872c1.085,0.387 0.34,5.104 -1.663,10.528c-2.003,5.423 -4.51,9.512 -5.595,9.125c-1.085,-0.387 -0.34,-5.104 1.663,-10.528c2.003,-5.423 4.51,-9.512 5.595,-9.125Z" style="fill:rgb(59,48,6);"/>
                    <path d="M254.716,218.926c1.085,0.387 0.339,5.104 -1.664,10.528c-2.003,5.423 -4.51,9.512 -5.595,9.125c-1.085,-0.387 -0.339,-5.104 1.664,-10.528c2.003,-5.423 4.51,-9.512 5.595,-9.125Z" style="fill:rgb(59,48,6);"/>
                </g>
            </g>
            <g>
                <g>
                    <path d="M233.433,182.657c0.771,-0.862 4.904,1.531 9.222,5.339c4.318,3.808 7.197,7.599 6.425,8.461c-0.771,0.861 -4.904,-1.531 -9.222,-5.339c-4.318,-3.809 -7.197,-7.6 -6.425,-8.461Z" style="fill:rgb(59,48,6);"/>
                    <path d="M270.101,214.994c0.772,-0.861 4.904,1.531 9.222,5.339c4.319,3.808 7.198,7.6 6.426,8.461c-0.772,0.862 -4.904,-1.531 -9.223,-5.339c-4.318,-3.808 -7.197,-7.599 -6.425,-8.461Z" style="fill:rgb(59,48,6);"/>
                </g>
                <g>
                    <path d="M283.048,179.542c0.861,0.76 -1.584,4.885 -5.456,9.207c-3.873,4.322 -7.715,7.215 -8.576,6.456c-0.861,-0.759 1.584,-4.884 5.457,-9.206c3.872,-4.323 7.715,-7.216 8.575,-6.457Z" style="fill:rgb(59,48,6);"/>
                    <path d="M250.166,216.246c0.86,0.759 -1.585,4.884 -5.457,9.206c-3.873,4.323 -7.715,7.215 -8.576,6.456c-0.861,-0.759 1.584,-4.884 5.457,-9.206c3.872,-4.323 7.715,-7.215 8.576,-6.456Z" style="fill:rgb(59,48,6);"/>
                </g>
            </g>
            <g>
                <g>
                    <path d="M224.507,207.928c-0.063,-1.146 4.588,-2.372 10.38,-2.735c5.791,-0.364 10.544,0.271 10.607,1.417c0.063,1.146 -4.588,2.372 -10.38,2.735c-5.791,0.364 -10.544,-0.272 -10.607,-1.417Z" style="fill:rgb(59,48,6);"/>
                    <path d="M273.687,204.841c-0.063,-1.146 4.588,-2.372 10.38,-2.735c5.791,-0.364 10.545,0.271 10.607,1.417c0.063,1.146 -4.588,2.372 -10.379,2.735c-5.792,0.364 -10.545,-0.271 -10.608,-1.417Z" style="fill:rgb(59,48,6);"/>
                </g>
                <g>
                    <path d="M257.681,170.899c1.155,-0.072 2.348,4.536 2.663,10.286c0.315,5.749 -0.366,10.475 -1.521,10.547c-1.154,0.073 -2.347,-4.536 -2.662,-10.285c-0.316,-5.749 0.366,-10.475 1.52,-10.548Z" style="fill:rgb(59,48,6);"/>
                    <path d="M260.358,219.718c1.154,-0.072 2.347,4.537 2.663,10.286c0.315,5.749 -0.366,10.475 -1.521,10.548c-1.154,0.072 -2.347,-4.537 -2.663,-10.286c-0.315,-5.749 0.367,-10.475 1.521,-10.548Z" style="fill:rgb(59,48,6);"/>
                </g>
            </g>
        </g>
    </g>
</svg>
