<?xml version="1.0" encoding="UTF-8" standalone="no"?>
<!DOCTYPE svg PUBLIC "-//W3C//DTD SVG 1.1//EN" "http://www.w3.org/Graphics/SVG/1.1/DTD/svg11.dtd">
<svg width="100%" height="100%" viewBox="0 0 682 481" version="1.1" xmlns="http://www.w3.org/2000/svg" xmlns:xlink="http://www.w3.org/1999/xlink" xml:space="preserve" xmlns:serif="http://www.serif.com/" style="fill-rule:evenodd;clip-rule:evenodd;stroke-linecap:round;stroke-linejoin:round;stroke-miterlimit:1.5;">
    <rect id="sezione-idea" x="-0" y="0" width="681.615" height="480.565" style="fill:none;"/>
    <g id="sezione-idea1" serif:id="sezione-idea">
        <g id="testo2">
            <g transform="matrix(1,0,0,0.967146,0,-115.9)">
                <g transform="matrix(47.6004,0,0,47.6004,449.289,416.003)">
                </g>
                <text x="19.63px" y="416.003px" style="font-family:'OpenSans-ExtraBold', 'Open Sans', sans-serif;font-weight:800;font-size:47.6px;fill:white;">Ti basta un&apos;idea...</text>
            </g>
        </g>
        <g id="blocco1">
            <g id="nuvola2">
                <path d="M558.455,335.356C565.124,325.788 575.912,319.682 587.938,319.958C595.855,320.14 603.108,323.061 608.916,327.85C611.467,323.477 616.067,320.605 621.247,320.724C629.026,320.902 635.186,327.758 634.995,336.024C634.973,336.957 634.872,337.869 634.697,338.752C644.29,342.673 650.99,352.675 650.723,364.225C650.383,378.936 638.868,390.621 625.025,390.303C619.878,390.184 615.129,388.423 611.211,385.501C604.649,391.96 595.816,395.828 586.19,395.607C574.747,395.344 564.69,389.359 558.383,380.281C556.293,381.029 554.063,381.458 551.741,381.511C545.702,381.65 540.161,379.223 536.045,375.171C533.587,377.005 530.608,378.109 527.379,378.183C518.695,378.383 511.471,371.053 511.258,361.824C511.09,354.579 515.294,348.304 521.311,345.844C521.202,345.29 521.138,344.718 521.124,344.133C521.005,338.947 524.869,334.646 529.749,334.534C532.999,334.46 535.884,336.262 537.485,339.005C541.128,336 545.678,334.168 550.645,334.054C553.379,333.991 556.011,334.454 558.455,335.356Z" style="fill:rgb(255,233,152);"/>
            </g>
            <g id="idea">
                <g>
                    <g>
                        <g>
                            <path d="M548.685,15.203C548.685,12.876 546.795,10.986 544.468,10.986L536.035,10.986C533.708,10.986 531.819,12.876 531.819,15.203L531.819,138.627C531.819,140.954 533.708,142.844 536.035,142.844L544.468,142.844C546.795,142.844 548.685,140.954 548.685,138.627L548.685,15.203Z" style="fill:rgb(243,133,102);"/>
                            <path d="M610.394,70.112C610.996,67.865 609.66,65.551 607.412,64.948L599.267,62.766C597.019,62.164 594.705,63.5 594.102,65.748L572.712,145.564C572.11,147.812 573.446,150.126 575.694,150.728L583.839,152.911C586.087,153.513 588.401,152.177 589.004,149.929L610.394,70.112Z" style="fill:rgb(243,133,102);"/>
                            <path d="M488.165,66.694C487.563,64.447 485.249,63.111 483.001,63.713L474.855,65.895C472.607,66.497 471.271,68.811 471.874,71.059L493.01,149.929C493.613,152.177 495.927,153.513 498.174,152.911L506.32,150.728C508.568,150.126 509.904,147.812 509.301,145.564L488.165,66.694Z" style="fill:rgb(243,133,102);"/>
                            <path d="M444.103,119.552C442.816,117.613 440.196,117.084 438.258,118.371L431.233,123.036C429.294,124.323 428.765,126.941 430.053,128.88L456.975,169.418C458.262,171.357 460.882,171.886 462.82,170.599L469.845,165.934C471.784,164.647 472.313,162.028 471.025,160.09L444.103,119.552Z" style="fill:url(#_Linear1);"/>
                            <path d="M638.164,119.552C639.452,117.613 642.071,117.084 644.01,118.371L651.035,123.036C652.973,124.323 653.502,126.941 652.215,128.88L625.292,169.418C624.005,171.357 621.386,171.886 619.447,170.599L612.422,165.934C610.483,164.647 609.955,162.028 611.242,160.09L638.164,119.552Z" style="fill:url(#_Linear2);"/>
                        </g>
                    </g>
                    <circle cx="503.497" cy="253.902" r="3.564" style="fill:rgb(254,245,132);"/>
                    <path d="M495.803,354.396C495.803,354.396 408.039,171.125 531.39,165.439C669.541,159.071 586.77,341.796 581.991,352.109C582.012,352.111 582.033,352.112 582.054,352.114L578.747,369.623C565.644,375.206 528.821,376.352 500.279,369.009L495.803,354.396Z" style="fill:rgb(243,133,102);"/>
                    <circle cx="576.117" cy="257.466" r="3.564" style="fill:rgb(254,245,132);"/>
                    <circle cx="503.497" cy="253.902" r="3.564" style="fill:rgb(254,245,132);"/>
                    <circle cx="505.401" cy="182.793" r="1.62" style="fill:rgb(254,245,132);"/>
                    <path d="M602.813,262.542C602.24,263.228 601.217,263.321 600.531,262.748C599.844,262.175 599.752,261.153 600.325,260.466C600.898,259.78 601.92,259.687 602.607,260.26C603.293,260.833 603.385,261.855 602.813,262.542Z" style="fill:rgb(254,245,132);"/>
                    <circle cx="516.841" cy="177.231" r="1.62" style="fill:rgb(254,245,132);"/>
                    <path d="M601.266,274.967C600.693,275.653 599.67,275.746 598.984,275.173C598.297,274.6 598.205,273.578 598.778,272.891C599.35,272.204 600.373,272.112 601.059,272.685C601.746,273.258 601.838,274.28 601.266,274.967Z" style="fill:rgb(254,245,132);"/>
                    <circle cx="510.369" cy="178.851" r="1.62" style="fill:rgb(254,245,132);"/>
                    <path d="M602.657,268.882C602.084,269.569 601.062,269.661 600.375,269.088C599.689,268.515 599.596,267.493 600.169,266.806C600.742,266.12 601.764,266.028 602.451,266.6C603.137,267.173 603.23,268.196 602.657,268.882Z" style="fill:rgb(254,245,132);"/>
                    <path d="M572.914,184.246C572.569,184.003 572.454,183.544 572.643,183.167C572.833,182.79 573.27,182.608 573.671,182.74C580.408,185.32 591.334,191.52 594.547,205.549C594.615,205.868 594.44,206.187 594.135,206.301C593.83,206.415 593.488,206.287 593.332,206.002C589.441,199.115 584.095,191.908 572.914,184.246Z" style="fill:rgb(240,87,88);fill-opacity:0.73;"/>
                    <path d="M518.087,412.285L519.113,442.237C532.073,446.861 545.128,447.101 558.276,443.048L559.204,413.588C546.421,410.454 531.057,404.877 518.087,412.285Z" style="fill:rgb(38,38,38);"/>
                    <path d="M501.994,391.876C500.464,391.365 499.379,389.901 499.423,388.205L499.618,380.676C499.643,379.713 500.028,378.844 500.641,378.193C500.063,377.512 499.723,376.624 499.748,375.661L499.944,368.131C499.998,366.053 501.729,364.41 503.807,364.464C526.945,371.595 550.677,372.368 575.045,366.312C577.124,366.366 578.767,368.097 578.713,370.175L578.518,377.705C578.499,378.446 578.266,379.131 577.881,379.704C578.769,380.416 579.326,381.519 579.294,382.743L579.099,390.273C579.055,391.968 577.895,393.374 576.341,393.805C577.87,394.316 578.956,395.78 578.912,397.475L578.717,405.005C578.671,406.759 577.43,408.204 575.794,408.579C576.408,409.269 576.771,410.184 576.745,411.179L576.55,418.708C576.497,420.768 574.795,422.401 572.74,422.377C573.159,422.829 573.409,423.438 573.392,424.103L573.265,428.994C573.23,430.344 572.106,431.411 570.756,431.376C549.32,435.81 527.603,435.13 505.622,429.686C504.272,429.651 503.205,428.527 503.24,427.177L503.367,422.286C503.384,421.621 503.665,421.025 504.107,420.596C502.054,420.514 500.439,418.795 500.493,416.735L500.688,409.205C500.714,408.21 501.124,407.315 501.773,406.658C500.159,406.199 498.995,404.692 499.04,402.938L499.236,395.408C499.28,393.713 500.44,392.307 501.994,391.876Z" style="fill:url(#_Linear3);"/>
                    <path d="M576.529,370.153C576.234,370.633 575.606,370.783 575.126,370.489C574.646,370.194 574.495,369.565 574.79,369.085C575.084,368.605 575.713,368.455 576.193,368.749C576.673,369.044 576.824,369.673 576.529,370.153Z" style="fill:rgb(228,228,228);"/>
                    <path d="M575.509,397.141C575.214,397.621 574.585,397.772 574.106,397.477C573.626,397.183 573.475,396.554 573.77,396.074C574.064,395.594 574.693,395.444 575.173,395.738C575.653,396.033 575.803,396.662 575.509,397.141Z" style="fill:rgb(228,228,228);"/>
                    <path d="M573.915,413.235C573.698,413.588 573.236,413.699 572.883,413.482C572.53,413.266 572.419,412.803 572.636,412.45C572.852,412.097 573.315,411.987 573.668,412.203C574.021,412.42 574.132,412.882 573.915,413.235Z" style="fill:rgb(228,228,228);"/>
                    <path d="M576.694,378.036C576.4,378.516 575.771,378.667 575.291,378.372C574.811,378.077 574.661,377.449 574.955,376.969C575.25,376.489 575.879,376.338 576.358,376.633C576.838,376.927 576.989,377.556 576.694,378.036Z" style="fill:rgb(228,228,228);"/>
                    <path d="M575.674,405.025C575.38,405.505 574.751,405.655 574.271,405.361C573.791,405.066 573.64,404.437 573.935,403.957C574.23,403.478 574.858,403.327 575.338,403.622C575.818,403.916 575.969,404.545 575.674,405.025Z" style="fill:rgb(228,228,228);"/>
                    <path d="M574.037,419.033C573.82,419.386 573.357,419.497 573.005,419.28C572.652,419.064 572.541,418.601 572.757,418.248C572.974,417.895 573.437,417.785 573.79,418.001C574.142,418.218 574.253,418.68 574.037,419.033Z" style="fill:rgb(228,228,228);"/>
                    <path d="M577.008,374.118C576.714,374.598 576.085,374.748 575.605,374.454C575.125,374.159 574.975,373.531 575.269,373.051C575.564,372.571 576.193,372.42 576.672,372.715C577.152,373.009 577.303,373.638 577.008,374.118Z" style="fill:rgb(228,228,228);"/>
                    <path d="M575.988,401.107C575.694,401.587 575.065,401.737 574.585,401.443C574.105,401.148 573.954,400.519 574.249,400.039C574.544,399.559 575.172,399.409 575.652,399.703C576.132,399.998 576.283,400.627 575.988,401.107Z" style="fill:rgb(228,228,228);"/>
                    <path d="M574.267,416.152C574.051,416.505 573.588,416.615 573.235,416.399C572.882,416.182 572.772,415.72 572.988,415.367C573.205,415.014 573.667,414.903 574.02,415.12C574.373,415.336 574.484,415.799 574.267,416.152Z" style="fill:rgb(228,228,228);"/>
                    <path d="M571.24,377.225C571.766,377.125 572.286,377.425 572.464,377.93C572.641,378.436 572.422,378.995 571.949,379.246C563.343,383.29 522.684,387.397 506.195,377.227C505.847,377.004 505.714,376.561 505.882,376.184C506.051,375.807 506.47,375.61 506.868,375.721C517.075,378.443 553.386,380.846 571.24,377.225Z" style="fill:rgb(35,77,99);fill-opacity:0.32;"/>
                    <path d="M571.24,377.225C571.766,377.125 572.286,377.425 572.464,377.93C572.641,378.436 572.422,378.995 571.949,379.246C563.343,383.29 522.684,387.397 506.195,377.227C505.847,377.004 505.714,376.561 505.882,376.184C506.051,375.807 506.47,375.61 506.868,375.721C517.075,378.443 553.386,380.846 571.24,377.225Z" style="fill:rgb(35,77,99);fill-opacity:0.32;"/>
                    <path d="M571.24,332.693C571.766,332.593 572.286,332.893 572.464,333.399C572.641,333.904 572.422,334.463 571.949,334.714C563.343,338.758 522.684,342.865 506.195,332.695C505.847,332.473 505.714,332.029 505.882,331.652C506.051,331.275 506.47,331.078 506.868,331.189C517.075,333.911 553.386,336.314 571.24,332.693Z" style="fill:rgb(240,87,88);fill-opacity:0.47;"/>
                    <path d="M577.249,362.857C577.843,362.629 578.492,363.094 578.703,363.694C578.913,364.295 578.653,364.959 578.091,365.257C567.87,370.06 519.581,374.937 499.998,362.859C499.584,362.595 499.426,362.068 499.627,361.62C499.827,361.172 500.371,360.827 500.797,361.07C512.242,367.585 555.183,371.325 577.249,362.857Z" style="fill:rgb(133,42,42);fill-opacity:0.47;"/>
                    <path d="M555.284,357.212C555.535,357.115 555.809,357.312 555.898,357.566C555.987,357.819 555.878,358.1 555.64,358.226C551.322,360.255 530.92,362.316 522.646,357.213C522.472,357.101 522.405,356.878 522.49,356.689C522.574,356.5 522.804,356.354 522.984,356.457C527.819,359.209 545.962,360.79 555.284,357.212Z" style="fill:rgb(133,42,42);fill-opacity:0.47;"/>
                    <path d="M512.125,281.806C510.6,256.752 571.651,263.991 563.632,286.4C561.815,291.477 548.977,285.784 538.049,286.2C524.597,286.713 512.737,291.868 512.125,281.806Z" style="fill:rgb(240,87,88);fill-opacity:0.41;"/>
                    <path d="M571.24,391.55C571.766,391.45 572.286,391.75 572.464,392.255C572.641,392.761 572.422,393.32 571.949,393.571C563.343,397.615 522.684,401.722 506.195,391.552C505.847,391.329 505.714,390.886 505.882,390.509C506.051,390.132 506.47,389.935 506.868,390.046C517.075,392.768 553.386,395.171 571.24,391.55Z" style="fill:rgb(35,77,99);fill-opacity:0.32;"/>
                    <path d="M571.24,407.224C571.766,407.124 572.286,407.423 572.464,407.929C572.641,408.434 572.422,408.994 571.949,409.244C563.343,413.288 522.684,417.395 506.195,407.225C505.847,407.003 505.714,406.559 505.882,406.182C506.051,405.805 506.47,405.608 506.868,405.719C517.075,408.441 553.386,410.844 571.24,407.224Z" style="fill:rgb(35,77,99);fill-opacity:0.32;"/>
                    <path d="M561.195,423.223C561.556,423.155 561.913,423.361 562.035,423.707C562.157,424.054 562.007,424.438 561.682,424.61C555.775,427.386 527.87,430.204 516.553,423.225C516.314,423.072 516.223,422.767 516.339,422.509C516.455,422.25 516.742,422.115 517.015,422.191C524.021,424.059 548.941,425.708 561.195,423.223Z" style="fill:rgb(35,77,99);fill-opacity:0.32;"/>
                    <g>
                        <path d="M524.154,351.705C517.092,319.146 509.831,286.625 503.497,253.892" style="fill:none;stroke:rgb(254,245,132);stroke-width:2.43px;"/>
                        <path d="M503.497,253.892C513.509,247.995 522.728,250.202 530.468,254.953C536.085,258.4 543.082,260.956 550.753,261.657C560.669,262.562 566.192,257.492 576.117,255.943" style="fill:none;stroke:rgb(254,245,132);stroke-width:1.21px;"/>
                    </g>
                    <path d="M552.674,351.348L576.119,255.925" style="fill:none;stroke:rgb(254,245,132);stroke-width:2.33px;"/>
                    <path d="M522.407,357.079C522.407,357.079 520.892,349.378 525.278,347.265C541.032,339.678 552,347.7 552,347.7C555.252,349.424 555.275,354.664 555.254,357.2C555.254,357.2 544.427,362.247 522.407,357.079Z" style="fill:rgb(240,99,93);"/>
                </g>
                <path d="M488.481,213.805C491.082,214.013 491.596,218.948 491.105,225.103C490.614,231.259 489.303,236.317 486.702,236.11C484.101,235.902 482.388,230.737 482.879,224.582C483.37,218.427 485.88,213.598 488.481,213.805Z" style="fill:rgb(240,87,88);fill-opacity:0.61;"/>
                <path d="M487.851,241.086C489.805,240.857 489.974,243.424 490.349,246.62C490.723,249.816 491.162,252.439 489.209,252.668C487.255,252.897 485.365,250.488 484.99,247.292C484.616,244.096 485.898,241.315 487.851,241.086Z" style="fill:rgb(240,87,88);fill-opacity:0.61;"/>
            </g>
            <g id="nuvola1">
                <path d="M342.251,349.058C355.59,329.923 377.166,317.71 401.217,318.262C417.052,318.626 431.558,324.468 443.174,334.047C448.276,325.3 457.476,319.555 467.837,319.793C483.394,320.151 495.714,333.863 495.332,350.394C495.289,352.261 495.086,354.084 494.736,355.851C513.921,363.691 527.322,383.697 526.789,406.796C526.109,436.218 503.079,459.588 475.392,458.951C465.097,458.715 455.6,455.193 447.764,449.349C434.641,462.266 416.975,470.003 397.723,469.56C374.836,469.034 354.722,457.064 342.108,438.908C337.929,440.404 333.468,441.262 328.825,441.369C316.747,441.646 305.665,436.792 297.432,428.689C292.517,432.355 286.558,434.565 280.101,434.713C262.731,435.112 248.284,420.452 247.857,401.994C247.523,387.504 255.929,374.953 267.965,370.035C267.746,368.926 267.618,367.782 267.591,366.612C267.352,356.241 275.081,347.639 284.84,347.415C291.34,347.265 297.111,350.869 300.312,356.356C307.599,350.347 316.699,346.683 326.633,346.454C332.1,346.329 337.364,347.255 342.251,349.058Z" style="fill:rgb(255,233,152);"/>
            </g>
        </g>
    </g>
    <defs>
        <linearGradient id="_Linear1" x1="0" y1="0" x2="1" y2="0" gradientUnits="userSpaceOnUse" gradientTransform="matrix(7.10543e-15,87.4694,-87.4694,0,540.252,96.3532)"><stop offset="0" style="stop-color:rgb(243,133,102);stop-opacity:1"/><stop offset="1" style="stop-color:rgb(243,133,102);stop-opacity:0"/></linearGradient>
        <linearGradient id="_Linear2" x1="0" y1="0" x2="1" y2="0" gradientUnits="userSpaceOnUse" gradientTransform="matrix(0,87.4694,-87.4694,2.13163e-14,540.252,96.3532)"><stop offset="0" style="stop-color:rgb(243,133,102);stop-opacity:1"/><stop offset="1" style="stop-color:rgb(243,133,102);stop-opacity:0"/></linearGradient>
        <linearGradient id="_Linear3" x1="0" y1="0" x2="1" y2="0" gradientUnits="userSpaceOnUse" gradientTransform="matrix(2.33786e-15,38.1744,-38.1801,2.33751e-15,538.646,389.086)"><stop offset="0" style="stop-color:rgb(181,181,181);stop-opacity:1"/><stop offset="1" style="stop-color:rgb(120,120,120);stop-opacity:1"/></linearGradient>
    </defs>
</svg>
